<?xml version="1.0" encoding="UTF-8"?>
<svg id="Layer_1" data-name="Layer 1" xmlns="http://www.w3.org/2000/svg" xmlns:xlink="http://www.w3.org/1999/xlink" viewBox="0 0 966.3 692.19">
  <defs>
    <style>
      .cls-1 {
        fill: none;
      }

      .cls-2 {
        fill: #231f20;
      }

      .cls-3 {
        clip-path: url(#clippath-1);
      }

      .cls-4 {
        clip-path: url(#clippath-3);
      }

      .cls-5 {
        clip-path: url(#clippath-4);
      }

      .cls-6 {
        clip-path: url(#clippath-2);
      }

      .cls-7 {
        clip-path: url(#clippath-5);
      }

      .cls-8 {
        fill: #fff;
      }

      .cls-9 {
        fill: #008ccf;
      }

      .cls-10 {
        clip-path: url(#clippath);
      }
    </style>
    <clipPath id="clippath">
      <rect class="cls-1" x="53.01" y="54.69" width="860.97" height="582.81"/>
    </clipPath>
    <clipPath id="clippath-1">
      <rect class="cls-1" x="53.01" y="54.69" width="860.97" height="582.81"/>
    </clipPath>
    <clipPath id="clippath-2">
      <rect class="cls-1" x="53.01" y="54.69" width="860.97" height="582.81"/>
    </clipPath>
    <clipPath id="clippath-3">
      <rect class="cls-1" x="53.01" y="54.69" width="860.97" height="582.81"/>
    </clipPath>
    <clipPath id="clippath-4">
      <rect class="cls-1" x="53.01" y="54.69" width="860.97" height="582.81"/>
    </clipPath>
    <clipPath id="clippath-5">
      <rect class="cls-1" x="53.01" y="54.69" width="860.97" height="582.81"/>
    </clipPath>
  </defs>
  <g class="cls-10">
    <path class="cls-9" d="M913.97,476.32c0,19.65-16.14,35.73-35.87,35.73H88.88c-19.73,0-35.87-16.08-35.87-35.73V90.42c0-19.65,16.14-35.73,35.87-35.73h789.22c19.73,0,35.87,16.08,35.87,35.73v385.89Z"/>
    <path class="cls-2" d="M195.58,234.96c0-9.27-2.09-17.11-6.25-23.52-4.17-6.4-11.15-11.01-20.95-13.82-3.06-.85-6.52-1.46-10.38-1.83-3.86-.36-8.91-.55-15.16-.55h-26.65v79.81h30.87c8.33,0,15.53-1.01,21.6-3.02,6.06-2.02,11.12-4.82,15.16-8.42,4.04-3.6,7.01-7.84,8.91-12.72s2.85-10.19,2.85-15.93M243.18,401.35c0,.98-.18,1.83-.55,2.56-.37.73-1.17,1.35-2.39,1.83-1.22.49-2.94.85-5.14,1.1-2.21.24-5.15.37-8.82.37-3.19,0-5.79-.12-7.81-.37-2.02-.25-3.65-.64-4.87-1.19-1.23-.55-2.18-1.31-2.85-2.29-.67-.98-1.26-2.2-1.74-3.66l-21.87-55.83c-2.57-6.34-5.24-12.17-7.99-17.48-2.76-5.31-6.04-9.88-9.83-13.73-3.8-3.85-8.27-6.84-13.41-8.97-5.15-2.13-11.33-3.2-18.56-3.2h-21.14v100.86c0,.98-.28,1.83-.83,2.56-.55.73-1.41,1.31-2.57,1.74-1.17.43-2.76.79-4.78,1.1-2.02.3-4.57.46-7.63.46s-5.61-.16-7.63-.46c-2.02-.3-3.65-.67-4.87-1.1-1.23-.43-2.08-1.01-2.57-1.74-.49-.73-.73-1.58-.73-2.56v-219.29c0-4.76,1.25-8.08,3.76-9.98,2.51-1.89,5.17-2.84,8-2.84h50.54c6,0,11,.15,14.98.46,3.98.3,7.57.64,10.75,1.01,9.19,1.59,17.3,4.09,24.35,7.5,7.04,3.42,12.96,7.75,17.73,13,4.78,5.25,8.36,11.26,10.75,18.03,2.39,6.77,3.59,14.25,3.59,22.42s-1.08,15.04-3.22,21.32c-2.14,6.29-5.24,11.84-9.28,16.66-4.04,4.82-8.88,9-14.52,12.54-5.64,3.54-11.95,6.53-18.93,8.97,3.92,1.71,7.47,3.87,10.66,6.5,3.19,2.63,6.16,5.77,8.92,9.43,2.75,3.66,5.36,7.87,7.81,12.63,2.45,4.76,4.89,10.13,7.35,16.11l21.32,52.17c1.72,4.39,2.82,7.48,3.31,9.25.49,1.77.73,3.14.73,4.12"/>
    <path class="cls-2" d="M364.65,200.73h-.18l-40.98,118.07h82.7l-41.53-118.07ZM467.02,394.94c.98,2.69,1.5,4.85,1.56,6.5.06,1.64-.4,2.9-1.38,3.75-.98.85-2.6,1.4-4.87,1.65-2.27.24-5.3.36-9.09.36s-6.83-.09-9.1-.27c-2.27-.18-3.98-.49-5.15-.92-1.17-.43-2.02-1.01-2.57-1.74-.55-.73-1.07-1.65-1.57-2.75l-20.4-57.66h-98.87l-19.48,56.93c-.37,1.1-.86,2.04-1.47,2.84s-1.5,1.46-2.66,2.02c-1.17.55-2.82.94-4.96,1.19-2.14.24-4.94.36-8.36.36s-6.46-.15-8.73-.45c-2.27-.31-3.86-.89-4.78-1.74-.92-.85-1.35-2.1-1.29-3.75.06-1.65.58-3.82,1.56-6.5l79.76-220.02c.49-1.35,1.13-2.44,1.93-3.3.8-.85,1.96-1.52,3.49-2.02,1.53-.49,3.49-.82,5.88-1.01,2.39-.18,5.42-.28,9.09-.28,3.92,0,7.17.09,9.74.28,2.57.18,4.66.52,6.25,1.01,1.59.49,2.82,1.19,3.68,2.11.85.91,1.53,2.04,2.02,3.39l79.76,220.02Z"/>
    <path class="cls-8" d="M586.62,401.53c0,.98-.25,1.8-.73,2.47-.49.67-1.29,1.25-2.39,1.74-1.1.48-2.64.85-4.6,1.1-1.96.24-4.48.36-7.53.36s-5.39-.12-7.35-.36c-1.96-.25-3.53-.62-4.69-1.1-1.17-.49-1.96-1.07-2.39-1.74-.43-.67-.64-1.5-.64-2.47v-164.74c0-.85.21-1.65.64-2.38.43-.73,1.23-1.34,2.39-1.83,1.16-.49,2.72-.85,4.69-1.1,1.96-.24,4.41-.37,7.35-.37s5.57.12,7.53.37c1.96.24,3.49.61,4.6,1.1,1.1.49,1.9,1.1,2.39,1.83.49.73.73,1.53.73,2.38v164.74ZM590.11,181.14c0,7.08-1.35,11.9-4.04,14.46s-7.66,3.84-14.88,3.84-11.98-1.25-14.61-3.75c-2.64-2.5-3.95-7.23-3.95-14.19s1.35-11.9,4.04-14.46c2.69-2.56,7.66-3.85,14.89-3.85s11.97,1.25,14.61,3.76c2.64,2.5,3.95,7.23,3.95,14.19"/>
    <path class="cls-8" d="M795.76,285.48c0-12.81-1.59-24.74-4.77-35.79-3.19-11.04-8.18-20.59-14.98-28.65-6.8-8.05-15.41-14.34-25.82-18.85-10.41-4.51-23.83-6.77-40.24-6.77h-32.16v184.33h32.53c15.19,0,28-1.89,38.41-5.68,10.41-3.78,19.11-9.58,26.09-17.39,6.99-7.8,12.23-17.6,15.71-29.38,3.49-11.78,5.24-25.72,5.24-41.83M829.02,284.2c0,20.5-2.64,38.41-7.9,53.73-5.27,15.32-12.96,28-23.06,38.07-10.11,10.07-22.51,17.61-37.22,22.61-14.7,5-32.22,7.51-52.56,7.51h-50.35c-2.82,0-5.49-.95-8-2.84-2.51-1.89-3.77-5.22-3.77-9.98v-211.24c0-4.76,1.26-8.08,3.77-9.98,2.51-1.89,5.17-2.84,8-2.84h53.85c20.58,0,37.98,2.65,52.19,7.97,14.21,5.31,26.12,12.93,35.74,22.88,9.62,9.95,16.91,21.99,21.87,36.15,4.96,14.16,7.44,30.14,7.44,47.96"/>
    <path class="cls-8" d="M538.42,113.58c-9.25,0-16.76,7.49-16.76,16.7v306.18c0,9.2,7.52,16.7,16.76,16.7h307.4c9.25,0,16.76-7.49,16.76-16.7V130.28c0-9.21-7.52-16.7-16.76-16.7h-307.4ZM845.82,473.47h-307.4c-20.49,0-37.16-16.61-37.16-37.01V130.28c0-20.41,16.67-37.02,37.16-37.02h307.4c20.49,0,37.16,16.61,37.16,37.02v306.18c0,20.41-16.66,37.01-37.16,37.01"/>
    <path class="cls-2" d="M96.3,596.36h13.78c2.92,0,5.22-.3,6.87-.91,1.65-.6,2.91-1.57,3.76-2.89.86-1.33,1.29-2.77,1.29-4.33,0-2.28-.83-4.16-2.5-5.63-1.66-1.47-4.29-2.2-7.88-2.2h-15.33v15.96ZM89.89,623.31v-48.25h21.49c4.32,0,7.6.43,9.85,1.3,2.24.87,4.04,2.4,5.39,4.59,1.34,2.19,2.02,4.62,2.02,7.28,0,3.42-1.11,6.31-3.34,8.66-2.23,2.35-5.67,3.84-10.31,4.48,1.69.81,2.98,1.61,3.87,2.4,1.87,1.71,3.65,3.85,5.33,6.42l8.42,13.13h-8.07l-6.41-10.04c-1.87-2.9-3.42-5.11-4.63-6.65-1.21-1.54-2.3-2.61-3.25-3.23-.96-.61-1.93-1.04-2.92-1.28-.73-.16-1.91-.23-3.57-.23h-7.43v21.43h-6.41Z"/>
    <path class="cls-2" d="M142.41,602.48h19.59c-.27-2.94-1.01-5.15-2.25-6.62-1.89-2.28-4.35-3.42-7.37-3.42-2.73,0-5.03.91-6.89,2.73-1.86,1.82-2.89,4.26-3.09,7.31M161.93,612.06l6.15.76c-.97,3.58-2.76,6.35-5.39,8.33-2.62,1.98-5.97,2.97-10.04,2.97-5.13,0-9.2-1.58-12.21-4.73-3.01-3.14-4.51-7.56-4.51-13.24s1.52-10.45,4.56-13.69c3.04-3.25,6.98-4.87,11.83-4.87s8.53,1.59,11.5,4.77c2.97,3.18,4.46,7.66,4.46,13.43,0,.35-.01.88-.04,1.58h-26.17c.22,3.84,1.31,6.78,3.27,8.82,1.96,2.04,4.41,3.06,7.34,3.06,2.18,0,4.04-.57,5.58-1.71,1.54-1.14,2.77-2.97,3.67-5.47"/>
    <path class="cls-2" d="M173.17,612.88l5.88-.92c.34,2.35,1.25,4.15,2.76,5.4,1.51,1.25,3.62,1.88,6.33,1.88s4.76-.56,6.08-1.66c1.33-1.11,1.99-2.41,1.99-3.9,0-1.34-.59-2.39-1.75-3.16-.82-.53-2.85-1.2-6.08-2.01-4.36-1.1-7.39-2.05-9.07-2.85-1.68-.8-2.96-1.91-3.83-3.32-.87-1.41-1.31-2.98-1.31-4.69,0-1.56.36-3,1.07-4.33.72-1.33,1.69-2.43,2.93-3.31.92-.68,2.19-1.26,3.78-1.73,1.6-.47,3.31-.71,5.14-.71,2.75,0,5.17.39,7.25,1.19,2.08.79,3.62,1.85,4.61,3.2s1.68,3.16,2.05,5.42l-5.82.79c-.26-1.8-1.03-3.2-2.3-4.21-1.27-1.01-3.06-1.51-5.37-1.51-2.73,0-4.68.45-5.85,1.35-1.17.9-1.75,1.96-1.75,3.16,0,.77.24,1.46.73,2.07.49.64,1.24,1.17,2.28,1.58.6.22,2.35.72,5.26,1.51,4.21,1.12,7.14,2.03,8.81,2.75,1.66.72,2.97,1.75,3.92,3.11.95,1.36,1.42,3.05,1.42,5.07s-.58,3.83-1.74,5.58c-1.16,1.74-2.82,3.09-5,4.05-2.19.95-4.65,1.43-7.41,1.43-4.56,0-8.03-.94-10.43-2.83-2.39-1.89-3.92-4.68-4.58-8.39"/>
    <path class="cls-2" d="M213.89,602.48h19.59c-.27-2.94-1.01-5.15-2.25-6.62-1.89-2.28-4.35-3.42-7.37-3.42-2.73,0-5.03.91-6.89,2.73-1.86,1.82-2.89,4.26-3.09,7.31M233.42,612.06l6.15.76c-.97,3.58-2.76,6.35-5.39,8.33-2.62,1.98-5.97,2.97-10.04,2.97-5.13,0-9.2-1.58-12.21-4.73-3.01-3.14-4.51-7.56-4.51-13.24s1.52-10.45,4.56-13.69c3.04-3.25,6.98-4.87,11.83-4.87s8.53,1.59,11.5,4.77c2.97,3.18,4.46,7.66,4.46,13.43,0,.35-.01.88-.04,1.58h-26.17c.22,3.84,1.31,6.78,3.27,8.82,1.96,2.04,4.41,3.06,7.34,3.06,2.18,0,4.04-.57,5.58-1.71,1.54-1.14,2.77-2.97,3.67-5.47"/>
    <path class="cls-2" d="M269.44,605.77c-2.16.87-5.4,1.62-9.71,2.24-2.45.35-4.18.75-5.19,1.18-1.01.44-1.8,1.08-2.35,1.92-.55.85-.83,1.79-.83,2.82,0,1.58.61,2.89,1.8,3.95,1.2,1.05,2.96,1.58,5.27,1.58s4.33-.5,6.12-1.5c1.79-1,3.09-2.36,3.93-4.1.64-1.34.96-3.31.96-5.93v-2.17ZM269.93,619c-2.2,1.86-4.32,3.18-6.36,3.95-2.04.77-4.22,1.15-6.56,1.15-3.86,0-6.82-.94-8.89-2.81-2.07-1.87-3.1-4.27-3.1-7.19,0-1.71.39-3.27,1.17-4.69.78-1.42,1.8-2.55,3.08-3.41,1.26-.85,2.69-1.5,4.27-1.94,1.17-.31,2.93-.61,5.29-.89,4.81-.57,8.34-1.25,10.61-2.04.02-.81.04-1.33.04-1.55,0-2.41-.56-4.11-1.68-5.1-1.52-1.34-3.78-2.01-6.78-2.01-2.8,0-4.86.49-6.19,1.46-1.34.98-2.32,2.7-2.96,5.18l-5.81-.79c.53-2.48,1.4-4.48,2.61-6.01,1.21-1.52,2.96-2.69,5.26-3.52,2.29-.83,4.94-1.24,7.97-1.24s5.43.35,7.3,1.06c1.87.7,3.25,1.58,4.13,2.65.88,1.07,1.5,2.41,1.85,4.03.2,1.01.3,2.83.3,5.47v7.9c0,5.51.12,8.99.38,10.45.26,1.46.75,2.86,1.51,4.2h-6.22c-.62-1.23-1.01-2.67-1.19-4.31"/>
    <path class="cls-2" d="M284.61,623.31v-34.95h5.35v5.3c1.36-2.48,2.63-4.12,3.79-4.9,1.15-.79,2.43-1.19,3.82-1.19,2.01,0,4.04.64,6.11,1.91l-2.05,5.5c-1.45-.85-2.91-1.28-4.36-1.28-1.3,0-2.47.39-3.5,1.17-1.04.78-1.77,1.86-2.21,3.24-.66,2.1-1,4.41-1,6.91v18.3h-5.95Z"/>
    <path class="cls-2" d="M330.11,610.51l5.85.76c-.64,4.02-2.27,7.16-4.9,9.43-2.64,2.27-5.87,3.41-9.7,3.41-4.81,0-8.67-1.56-11.58-4.69-2.92-3.13-4.38-7.61-4.38-13.45,0-3.78.63-7.08,1.88-9.91,1.26-2.83,3.16-4.96,5.73-6.37,2.57-1.41,5.36-2.12,8.37-2.12,3.81,0,6.93.96,9.36,2.88,2.42,1.92,3.98,4.65,4.66,8.18l-5.78.89c-.55-2.35-1.52-4.12-2.92-5.3-1.4-1.18-3.09-1.78-5.07-1.78-2.99,0-5.43,1.07-7.3,3.21-1.87,2.14-2.81,5.52-2.81,10.15s.9,8.11,2.71,10.23c1.8,2.13,4.16,3.2,7.07,3.2,2.34,0,4.29-.71,5.85-2.14,1.56-1.42,2.55-3.62,2.97-6.58"/>
    <path class="cls-2" d="M341.05,623.31v-48.25h5.95v17.31c2.77-3.2,6.28-4.81,10.51-4.81,2.59,0,4.85.51,6.77,1.53,1.92,1.02,3.29,2.43,4.11,4.23s1.24,4.41,1.24,7.84v22.15h-5.95v-22.15c0-2.97-.65-5.12-1.93-6.47-1.29-1.35-3.12-2.02-5.47-2.02-1.76,0-3.42.45-4.97,1.36-1.56.91-2.66,2.15-3.32,3.7-.66,1.56-.99,3.71-.99,6.45v19.13h-5.95Z"/>
    <path class="cls-2" d="M403.18,603.5h16.43l-5.06-13.36c-1.54-4.06-2.69-7.4-3.43-10.01-.62,3.09-1.49,6.17-2.61,9.22l-5.32,14.15ZM389.2,623.31l18.61-48.25h6.91l19.83,48.25h-7.31l-5.65-14.61h-20.26l-5.32,14.61h-6.81Z"/>
    <path class="cls-2" d="M461.81,610.51l5.85.76c-.64,4.02-2.27,7.16-4.9,9.43-2.64,2.27-5.87,3.41-9.7,3.41-4.81,0-8.67-1.56-11.58-4.69-2.92-3.13-4.38-7.61-4.38-13.45,0-3.78.63-7.08,1.88-9.91,1.26-2.83,3.16-4.96,5.73-6.37,2.57-1.41,5.36-2.12,8.37-2.12,3.81,0,6.93.96,9.36,2.88,2.42,1.92,3.98,4.65,4.66,8.18l-5.78.89c-.55-2.35-1.52-4.12-2.92-5.3-1.4-1.18-3.09-1.78-5.07-1.78-3,0-5.44,1.07-7.3,3.21-1.87,2.14-2.81,5.52-2.81,10.15s.9,8.11,2.71,10.23c1.8,2.13,4.16,3.2,7.07,3.2,2.34,0,4.28-.71,5.85-2.14,1.56-1.42,2.55-3.62,2.97-6.58"/>
    <path class="cls-2" d="M485.73,618.01l.85,5.23c-1.67.35-3.17.53-4.49.53-2.15,0-3.83-.34-5.02-1.02-1.18-.68-2.02-1.57-2.51-2.69-.48-1.11-.73-3.44-.73-6.99v-20.11h-4.36v-4.61h4.36v-8.65l5.92-3.56v12.21h5.98v4.61h-5.98v20.44c0,1.69.11,2.77.31,3.25.21.48.55.87,1.02,1.15.47.28,1.15.43,2.04.43.66,0,1.52-.07,2.61-.23"/>
  </g>
  <path class="cls-2" d="M491.58,588.36h5.95v34.95h-5.95v-34.95ZM491.58,575.06h5.95v6.81h-5.95v-6.81Z"/>
  <g class="cls-3">
    <path class="cls-2" d="M516.34,623.31l-13.35-34.95h6.28l7.53,20.93c.82,2.26,1.57,4.61,2.25,7.05.53-1.85,1.27-4.06,2.21-6.65l7.8-21.33h6.12l-13.29,34.95h-5.55Z"/>
  </g>
  <path class="cls-2" d="M540.46,588.36h5.95v34.95h-5.95v-34.95ZM540.46,575.06h5.95v6.81h-5.95v-6.81Z"/>
  <g class="cls-6">
    <path class="cls-2" d="M568.45,618.01l.85,5.23c-1.67.35-3.17.53-4.49.53-2.15,0-3.83-.34-5.02-1.02-1.19-.68-2.03-1.57-2.52-2.69-.48-1.11-.73-3.44-.73-6.99v-20.11h-4.36v-4.61h4.36v-8.65l5.92-3.56v12.21h5.98v4.61h-5.98v20.44c0,1.69.11,2.77.31,3.25.21.48.55.87,1.02,1.15.47.28,1.15.43,2.03.43.66,0,1.53-.07,2.61-.23"/>
    <path class="cls-2" d="M574.01,636.78l-.66-5.56c1.3.35,2.44.52,3.41.52,1.32,0,2.38-.22,3.17-.66.79-.44,1.44-1.06,1.95-1.85.38-.59.98-2.06,1.82-4.41.11-.33.28-.81.53-1.45l-13.32-35.02h6.4l7.31,20.25c.95,2.57,1.8,5.27,2.54,8.1.68-2.72,1.5-5.38,2.44-7.97l7.51-20.37h5.95l-13.35,35.55c-1.43,3.84-2.54,6.48-3.34,7.93-1.06,1.95-2.27,3.38-3.63,4.3-1.37.9-3,1.36-4.89,1.36-1.14,0-2.42-.24-3.83-.73"/>
  </g>
  <rect class="cls-2" x="628.77" y="575.06" width="6.41" height="48.25"/>
  <g class="cls-4">
    <path class="cls-2" d="M649.69,605.87c0,4.48.95,7.82,2.84,10.04,1.9,2.22,4.13,3.32,6.71,3.32s4.81-1.06,6.62-3.18c1.82-2.12,2.73-5.35,2.73-9.7,0-4.78-.93-8.3-2.78-10.53-1.85-2.24-4.13-3.36-6.84-3.36s-4.85,1.07-6.62,3.23c-1.77,2.15-2.66,5.54-2.66,10.17M668.49,623.31v-4.41c-2.22,3.47-5.5,5.2-9.81,5.2-2.8,0-5.37-.77-7.72-2.3-2.35-1.53-4.16-3.68-5.45-6.44-1.29-2.75-1.93-5.92-1.93-9.49s.58-6.66,1.75-9.49c1.17-2.85,2.92-5.02,5.26-6.54,2.34-1.51,4.95-2.27,7.84-2.27,2.11,0,3.99.45,5.65,1.34,1.65.89,3,2.05,4.03,3.47v-17.31h5.92v48.25h-5.52Z"/>
    <path class="cls-2" d="M687.86,602.48h19.59c-.27-2.94-1.01-5.15-2.25-6.62-1.89-2.28-4.35-3.42-7.37-3.42-2.73,0-5.03.91-6.89,2.73-1.86,1.82-2.89,4.26-3.09,7.31M707.38,612.06l6.15.76c-.97,3.58-2.76,6.35-5.39,8.33-2.62,1.98-5.97,2.97-10.04,2.97-5.13,0-9.2-1.58-12.21-4.73-3.01-3.14-4.51-7.56-4.51-13.24s1.52-10.45,4.56-13.69c3.04-3.25,6.98-4.87,11.83-4.87s8.53,1.59,11.5,4.77c2.97,3.18,4.46,7.66,4.46,13.43,0,.35,0,.88-.04,1.58h-26.17c.22,3.84,1.31,6.78,3.27,8.82,1.96,2.04,4.41,3.06,7.34,3.06,2.18,0,4.04-.57,5.58-1.71,1.54-1.14,2.77-2.97,3.67-5.47"/>
    <path class="cls-2" d="M721,623.31v-34.95h5.35v4.97c2.58-3.84,6.3-5.76,11.17-5.76,2.12,0,4.06.38,5.83,1.14,1.78.76,3.1,1.75,3.98,2.97.89,1.23,1.5,2.69,1.85,4.38.22,1.1.33,3.02.33,5.76v21.49h-5.95v-21.26c0-2.41-.23-4.22-.69-5.41-.46-1.2-1.29-2.15-2.46-2.86-1.18-.71-2.56-1.07-4.15-1.07-2.53,0-4.72.8-6.56,2.4-1.84,1.6-2.75,4.64-2.75,9.12v19.09h-5.95Z"/>
    <path class="cls-2" d="M771.63,618.01l.85,5.23c-1.67.35-3.17.53-4.49.53-2.16,0-3.83-.34-5.02-1.02-1.19-.68-2.03-1.57-2.52-2.69-.48-1.11-.73-3.44-.73-6.99v-20.11h-4.36v-4.61h4.36v-8.65l5.92-3.56v12.21h5.98v4.61h-5.98v20.44c0,1.69.11,2.77.31,3.25.21.48.55.87,1.02,1.15s1.15.43,2.04.43c.66,0,1.52-.07,2.61-.23"/>
  </g>
  <path class="cls-2" d="M777.47,588.36h5.95v34.95h-5.95v-34.95ZM777.47,575.06h5.95v6.81h-5.95v-6.81Z"/>
  <g class="cls-5">
    <path class="cls-2" d="M793.9,623.31v-30.35h-5.26v-4.6h5.26v-3.72c0-2.35.21-4.09.63-5.23.57-1.53,1.58-2.78,3.03-3.74,1.44-.95,3.46-1.43,6.06-1.43,1.68,0,3.53.2,5.55.6l-.89,5.16c-1.23-.22-2.4-.33-3.5-.33-1.8,0-3.09.39-3.83,1.15-.75.77-1.12,2.21-1.12,4.32v3.23h6.84v4.6h-6.84v30.35h-5.92Z"/>
  </g>
  <path class="cls-2" d="M811.31,588.36h5.95v34.95h-5.95v-34.95ZM811.31,575.06h5.95v6.81h-5.95v-6.81Z"/>
  <g class="cls-7">
    <path class="cls-2" d="M830.82,602.48h19.59c-.27-2.94-1.01-5.15-2.25-6.62-1.89-2.28-4.35-3.42-7.37-3.42-2.73,0-5.03.91-6.89,2.73-1.86,1.82-2.89,4.26-3.09,7.31M850.34,612.06l6.15.76c-.97,3.58-2.76,6.35-5.39,8.33-2.62,1.98-5.97,2.97-10.04,2.97-5.13,0-9.2-1.58-12.21-4.73-3.01-3.14-4.51-7.56-4.51-13.24s1.52-10.45,4.56-13.69c3.04-3.25,6.98-4.87,11.83-4.87s8.53,1.59,11.5,4.77c2.97,3.18,4.46,7.66,4.46,13.43,0,.35-.01.88-.04,1.58h-26.17c.22,3.84,1.31,6.78,3.27,8.82,1.96,2.04,4.41,3.06,7.34,3.06,2.18,0,4.04-.57,5.58-1.71,1.54-1.14,2.77-2.97,3.67-5.47"/>
    <path class="cls-2" d="M863.89,623.31v-34.95h5.35v5.3c1.36-2.48,2.63-4.12,3.79-4.9,1.15-.79,2.43-1.19,3.81-1.19,2,0,4.04.64,6.11,1.91l-2.04,5.5c-1.46-.85-2.91-1.28-4.37-1.28-1.3,0-2.47.39-3.5,1.17-1.04.78-1.77,1.86-2.21,3.24-.67,2.1-1,4.41-1,6.91v18.3h-5.95Z"/>
  </g>
</svg>