<svg xmlns="http://www.w3.org/2000/svg" role="img" aria-label="Australian Government and NCRIS logos" viewBox="0 0 673.1 210" width="673.1" height="210">

  <!-- Australian Government logo (left), bottom-aligned -->
  <svg x="0" y="18" width="360.2" height="200" viewBox="0 0 1160 644" preserveAspectRatio="xMidYMax meet">
    <g transform="translate(0,644) scale(0.1,-0.1)" fill="#000000" stroke="none">
      <path d="M5770 5754 c-14 -36 -28 -68 -31 -70 -3 -2 -37 5 -75 16 -38 11 -70
20 -72 20 -2 0 13 -29 33 -63 19 -35 35 -67 35 -70 0 -3 -28 -25 -62 -49 l-61
-43 78 -14 78 -14 -7 -73 c-3 -41 -2 -74 2 -74 5 0 24 16 43 36 58 61 63 61
124 8 l55 -46 0 75 0 75 70 12 c80 14 80 16 1 70 l-50 34 36 64 c19 34 33 65
31 67 -2 2 -33 -4 -68 -15 -35 -10 -66 -17 -70 -15 -4 3 -18 31 -30 62 -13 32
-26 61 -29 65 -4 4 -18 -22 -31 -58z"/>
      <path d="M5125 5473 c-10 -15 -29 -43 -42 -61 l-24 -32 -46 35 c-42 32 -117
64 -127 54 -12 -12 20 -106 51 -152 35 -52 35 -52 24 -113 -6 -34 -11 -86 -11
-116 0 -46 -8 -71 -52 -159 -72 -143 -147 -244 -279 -374 -177 -176 -239 -270
-254 -388 -5 -39 -12 -57 -22 -57 -18 0 -87 35 -138 70 -22 15 -73 40 -113 56
-82 31 -132 77 -132 122 0 15 16 52 35 82 25 39 35 65 35 95 0 43 -18 120 -27
112 -12 -13 -73 -205 -73 -233 0 -17 7 -51 15 -74 8 -24 13 -45 10 -48 -2 -3
-32 1 -65 7 -33 7 -65 9 -70 6 -6 -4 -51 -10 -101 -15 -69 -7 -99 -14 -125
-32 -19 -13 -34 -26 -34 -29 0 -4 32 -10 71 -14 69 -7 71 -6 131 30 57 35 64
37 123 33 63 -5 135 -33 224 -85 l43 -25 -57 -24 c-68 -27 -116 -70 -140 -125
-18 -38 -18 -41 3 -87 11 -26 23 -56 27 -67 l6 -20 16 20 c12 16 13 37 8 102
-7 101 0 117 68 149 83 38 123 32 225 -38 l43 -29 -3 -112 -3 -112 -67 -7
c-81 -8 -108 -16 -256 -79 -62 -27 -143 -54 -180 -60 -101 -17 -111 -31 -17
-24 56 4 106 17 170 41 49 20 119 47 155 60 35 14 93 28 128 31 l64 6 -12 -24
c-7 -13 -24 -39 -38 -58 -25 -33 -26 -34 -34 -12 -5 16 -15 21 -30 19 -29 -4
-36 -37 -12 -55 17 -12 16 -15 -16 -47 -23 -25 -53 -41 -100 -55 -65 -20 -120
-53 -120 -72 0 -13 65 -11 114 3 31 10 65 37 143 118 l103 105 0 -38 c0 -34
-23 -97 -35 -97 -3 0 -14 6 -25 12 -28 18 -57 -10 -41 -40 15 -28 -1 -38 -95
-62 -91 -22 -236 -37 -444 -44 -133 -5 -141 -4 -102 8 23 8 50 20 58 27 20 16
65 105 57 112 -16 17 -173 -109 -173 -139 0 -7 -27 -12 -76 -13 -84 -2 -126
-16 -122 -40 7 -35 62 -39 538 -37 l465 1 47 23 c80 40 169 165 210 295 10 34
26 70 36 80 19 21 65 47 83 47 20 0 4 -153 -27 -272 -22 -83 -26 -113 -18
-135 l9 -28 330 -6 c182 -4 358 -10 393 -14 42 -5 62 -4 62 3 0 27 -16 45 -64
70 l-51 27 -230 0 c-126 0 -237 4 -246 8 -35 18 -30 117 12 244 24 72 25 72
111 25 44 -25 46 -28 31 -44 -13 -14 -13 -20 -3 -33 18 -21 41 -19 47 5 3 11
10 20 17 20 18 0 212 -116 275 -164 75 -58 160 -150 222 -242 50 -75 139 -247
139 -270 0 -26 -120 102 -130 138 -14 49 -46 94 -101 140 -87 74 -38 71 -1189
67 -1009 -4 -1026 -4 -1065 16 -80 40 -110 131 -60 181 20 19 34 24 62 22 47
-4 62 -27 46 -69 -15 -39 -8 -53 18 -38 51 27 43 105 -15 140 -39 24 -60 24
-114 -1 -85 -39 -95 -145 -21 -225 71 -77 48 -75 783 -76 358 0 660 -4 671 -9
16 -7 13 -9 -17 -9 -47 -1 -58 -17 -18 -26 17 -4 60 -22 96 -41 45 -23 74 -32
92 -29 34 7 -119 -71 -170 -87 -34 -10 -39 -9 -76 21 -36 28 -46 31 -113 31
l-72 0 23 -25 c26 -28 76 -45 133 -45 20 0 37 -3 37 -7 0 -5 -46 -33 -103 -62
-99 -53 -105 -55 -182 -55 -103 -1 -179 33 -225 99 -19 28 -43 48 -70 59 -42
17 -101 22 -99 9 0 -5 27 -32 60 -60 39 -35 68 -53 85 -53 14 0 40 -10 56 -22
17 -11 62 -31 102 -43 l71 -22 -55 -16 c-121 -35 -364 -47 -501 -26 -70 11
-97 6 -69 -11 17 -11 18 -10 -84 -34 -53 -13 -79 -26 -117 -59 -27 -23 -49
-46 -49 -50 0 -4 16 -5 35 -2 19 3 51 7 70 10 23 4 55 23 92 56 65 57 77 61
158 57 55 -3 60 -5 57 -25 -4 -28 32 -50 54 -32 8 6 14 19 14 29 0 14 13 18
83 23 45 4 108 10 139 13 54 6 57 6 51 -14 -7 -29 29 -48 51 -26 11 11 13 21
7 32 -8 14 6 22 97 54 59 20 109 34 111 32 3 -2 -5 -24 -17 -49 -42 -86 -52
-222 -22 -299 16 -42 21 -27 11 35 -17 105 26 272 85 333 44 45 221 137 209
109 -37 -88 -55 -155 -55 -207 l0 -59 21 19 c37 32 49 75 43 150 -8 104 5 119
157 181 114 47 170 63 271 77 21 2 40 2 42 -2 2 -4 -13 -24 -34 -46 -62 -63
-92 -133 -93 -218 -1 -40 2 -98 6 -128 8 -54 7 -56 -37 -122 -27 -42 -40 -69
-33 -72 7 -2 2 -5 -11 -5 -33 -1 -36 19 -12 78 28 73 26 94 -15 130 -30 26
-44 31 -88 31 -65 0 -113 -27 -133 -75 -19 -46 -18 -77 5 -160 10 -39 22 -90
26 -114 7 -40 6 -43 -11 -36 -77 33 -107 38 -172 29 -37 -5 -67 -13 -67 -19 0
-19 70 -34 161 -34 103 -1 104 -2 104 -77 0 -55 12 -79 48 -98 73 -38 179 -28
456 43 148 38 330 70 341 59 3 -3 -6 -30 -20 -60 -40 -87 -42 -111 -11 -136
l26 -20 -64 -36 c-35 -20 -78 -36 -95 -36 -17 0 -83 -11 -147 -25 -64 -14
-119 -25 -122 -25 -4 0 4 -9 18 -20 23 -19 24 -21 8 -31 -10 -5 -18 -15 -18
-21 0 -6 7 -7 18 -3 9 4 46 11 82 17 36 5 103 27 150 48 91 41 221 66 204 39
-4 -8 -32 -51 -61 -97 -29 -45 -53 -87 -53 -92 0 -15 46 -23 69 -11 11 6 48
67 83 137 45 91 73 134 97 153 37 28 36 22 -13 -49 -37 -54 -42 -129 -13 -174
l18 -27 117 6 c78 5 125 12 141 23 23 14 26 13 45 -10 25 -30 57 -48 86 -48
27 0 24 11 -28 88 -22 31 -47 72 -57 91 -16 33 -16 34 1 26 53 -22 91 -34 109
-35 11 0 45 -18 74 -40 30 -22 78 -47 110 -56 31 -8 69 -19 85 -25 34 -11 52
-3 36 16 -8 10 -6 15 10 20 36 11 10 24 -111 56 -94 24 -126 38 -183 77 -38
26 -73 50 -78 53 -5 3 4 20 21 37 56 56 37 139 -37 162 -20 7 -41 17 -47 22
-18 19 99 -1 450 -76 129 -28 279 -34 348 -15 21 5 51 22 67 37 25 23 32 41
45 121 9 52 28 122 41 155 14 34 28 88 31 121 5 55 3 64 -21 92 -70 83 -196
83 -252 -2 -13 -20 -15 -39 -10 -93 l6 -67 -15 35 c-9 19 -27 46 -40 60 -34
36 -52 84 -64 175 -15 108 -38 169 -84 221 l-39 44 44 0 c43 0 119 -18 258
-60 140 -43 171 -67 203 -164 20 -59 76 -148 88 -140 31 19 -9 120 -70 179
-22 21 -41 43 -41 48 0 13 56 -1 137 -35 89 -36 160 -108 194 -196 38 -95 24
-247 -32 -367 -28 -59 -19 -69 13 -13 45 81 60 132 66 220 4 81 6 86 23 75 15
-9 22 -8 35 5 32 32 -11 75 -44 45 -16 -15 -18 -13 -28 19 -10 30 -9 34 5 29
24 -7 56 18 48 39 -10 25 -36 30 -56 12 -17 -16 -20 -15 -39 16 -12 18 -20 34
-18 35 1 2 56 -17 121 -42 154 -58 298 -94 404 -100 112 -7 81 8 -61 30 -90
13 -151 29 -236 60 -10 4 -9 10 3 29 15 23 15 25 -5 36 -26 14 -54 -4 -47 -32
3 -10 4 -18 3 -18 -2 0 -88 39 -192 86 -104 47 -247 106 -319 131 -403 138
-567 154 -762 75 -34 -14 -53 -18 -53 -10 0 22 78 85 121 97 31 9 282 15 864
21 1225 13 1222 13 1276 37 26 12 59 37 75 59 25 33 29 46 29 105 0 58 -4 71
-24 93 -28 30 -89 49 -125 40 -38 -9 -79 -59 -78 -95 1 -48 48 -89 68 -58 3 6
1 16 -5 22 -16 16 -14 53 5 71 22 23 57 20 88 -9 21 -19 26 -33 26 -71 0 -42
-4 -51 -39 -84 -38 -36 -42 -37 -132 -43 -52 -4 -490 -7 -974 -8 -484 -1 -915
-5 -958 -10 -143 -15 -243 -80 -281 -181 -11 -28 -43 -72 -83 -113 -36 -37
-63 -60 -60 -52 3 8 11 35 18 58 7 24 16 49 20 54 4 6 12 30 19 55 26 99 210
332 285 360 38 14 116 12 163 -4 52 -19 145 -30 178 -22 36 9 20 26 -57 60
-54 25 -64 27 -110 17 -27 -6 -62 -11 -77 -11 l-27 0 25 20 c64 51 401 192
418 176 9 -9 -48 -122 -101 -203 -56 -84 -77 -97 -207 -124 -52 -11 -103 -28
-113 -37 -18 -16 -18 -17 5 -23 12 -4 88 -7 168 -8 156 -1 170 3 170 47 0 22
87 204 151 319 27 47 43 53 153 53 101 0 144 -9 151 -31 11 -34 -15 -232 -34
-259 -18 -25 -68 -45 -181 -70 -58 -13 -83 -27 -75 -40 9 -15 132 -23 231 -15
l96 7 14 34 c9 22 16 84 18 175 2 78 9 146 14 151 7 7 19 4 37 -11 32 -24 50
-19 34 10 -15 29 -7 32 41 19 35 -9 40 -13 29 -26 -18 -22 14 -53 39 -37 9 6
16 18 16 27 -1 9 0 16 1 16 2 0 37 -7 77 -15 91 -20 171 -44 272 -84 162 -65
82 -8 -94 66 l-25 11 30 11 c17 6 40 17 51 24 33 18 106 88 101 94 -17 16 -89
-12 -137 -53 -29 -24 -60 -48 -69 -53 -10 -6 -57 1 -131 20 -63 16 -144 33
-179 39 -36 6 -69 14 -76 18 -7 5 -8 26 -2 70 12 83 35 97 146 87 190 -17 207
-10 197 73 l-6 54 65 70 c67 72 71 84 43 102 -23 14 -49 -10 -42 -39 4 -17 -3
-29 -33 -54 -20 -17 -40 -31 -43 -31 -3 0 -21 32 -40 72 -36 73 -164 229 -231
279 -46 35 -162 93 -237 118 -106 36 -220 23 -399 -46 -7 -3 -24 7 -38 23 -20
22 -25 37 -25 80 0 49 10 83 77 259 29 79 63 221 63 268 0 84 -53 147 -124
147 -28 0 -41 -7 -63 -35 -15 -20 -45 -47 -66 -61 -44 -29 -40 -44 12 -44 73
0 101 -10 101 -37 0 -36 -25 -88 -81 -170 -28 -41 -68 -107 -90 -146 -36 -67
-39 -70 -39 -39 l0 32 -398 0 -397 0 -40 27 c-59 40 -129 43 -204 9 -32 -14
-71 -26 -86 -26 -15 0 -34 -8 -41 -17 -11 -15 -13 -16 -17 -3 -11 33 -47 196
-47 211 0 21 20 29 73 29 110 1 142 76 57 135 -22 15 -40 36 -40 45 0 10 -16
30 -36 45 -35 27 -36 29 -30 79 6 55 -3 107 -21 113 -5 2 -18 -9 -28 -24z
m155 -682 c-7 -13 -7 -22 0 -26 16 -10 31 5 25 26 -6 18 0 19 114 18 110 -2
119 -3 111 -19 -5 -10 -6 -20 -3 -24 3 -3 -42 -6 -101 -6 l-107 0 3 -417 c3
-385 4 -421 22 -456 16 -32 47 -55 226 -162 115 -69 216 -125 227 -125 10 0
110 55 223 123 188 112 207 126 228 167 22 44 22 49 22 457 l0 413 -111 0
c-60 0 -108 4 -105 8 2 4 1 14 -4 21 -10 17 -33 4 -26 -15 4 -11 -15 -14 -107
-14 l-112 0 -1 25 -2 25 240 0 c235 0 240 0 235 -20 -6 -22 7 -35 23 -25 7 4
7 13 0 26 -9 16 -7 19 15 19 l25 0 0 -431 c0 -460 -3 -496 -48 -547 -37 -41
-466 -312 -495 -312 -13 0 -128 67 -260 151 -287 183 -277 170 -277 363 0 113
2 131 20 153 16 20 20 41 20 95 0 49 -6 80 -20 108 -18 35 -20 59 -20 230 0
164 2 190 15 190 12 0 14 -4 5 -19z m501 0 c-6 -10 -7 -21 -4 -25 3 -3 -45 -6
-108 -6 l-114 0 -1 25 -2 25 119 0 c114 0 119 -1 110 -19z m-331 -156 l0 -95
-50 0 -50 0 0 95 0 95 50 0 50 0 0 -95z m190 0 l0 -95 -40 0 -40 0 0 95 0 95
40 0 40 0 0 -95z m290 -160 l0 -255 -130 0 -130 0 0 255 0 255 130 0 130 0 0
-255z m310 0 l0 -255 -140 0 -140 0 0 255 0 255 140 0 140 0 0 -255z m-720
190 c0 -18 -27 -27 -33 -11 -6 16 12 38 25 30 4 -3 8 -11 8 -19z m-300 -77 l0
-92 -30 29 c-36 34 -39 75 -10 123 32 52 40 40 40 -60z m270 -89 c0 -8 6 -7
16 2 14 11 19 10 35 -10 27 -33 24 -38 -22 -34 -24 3 -47 -1 -57 -9 -15 -12
-16 -11 -2 5 12 17 12 20 -4 29 -15 8 -16 12 -5 19 20 12 39 11 39 -2z m140
-18 c-1 -17 -17 -29 -29 -21 -19 11 -6 41 14 34 8 -3 15 -9 15 -13z m-220 -6
c0 -8 -9 -15 -20 -15 -11 0 -20 7 -20 15 0 8 9 15 20 15 11 0 20 -7 20 -15z
m-267 -76 c81 -41 77 -27 77 -263 0 -121 5 -228 11 -251 17 -63 49 -95 159
-164 95 -59 101 -65 96 -90 -3 -14 -9 -50 -12 -79 -4 -29 -10 -51 -13 -50 -3
2 -53 35 -111 74 -121 81 -251 159 -351 209 -38 20 -69 37 -69 39 0 1 9 28 19
59 11 31 24 103 30 159 7 80 19 127 50 210 23 59 41 112 41 118 0 14 19 50 26
50 3 0 24 -10 47 -21z m302 -84 l0 -90 -47 -3 -48 -3 0 96 0 96 48 -3 47 -3 0
-90z m190 0 l0 -90 -37 -3 -38 -3 0 96 0 96 38 -3 37 -3 0 -90z m766 -2 c36
-58 119 -143 164 -165 22 -12 55 -33 74 -47 30 -22 45 -26 105 -26 68 0 70 -1
82 -30 19 -43 17 -83 -7 -152 -18 -56 -24 -62 -62 -77 -24 -9 -46 -16 -50 -16
-16 0 -198 -75 -292 -120 -114 -55 -199 -110 -269 -171 l-48 -43 7 32 c4 21 1
52 -11 87 -9 31 -15 57 -13 59 2 2 49 31 104 66 187 116 184 110 185 413 0
125 2 227 4 227 2 0 15 -17 27 -37z m-881 -28 c0 -7 -7 -15 -15 -19 -15 -5
-22 24 -9 37 9 9 24 -2 24 -18z m120 -331 l0 -236 -32 20 c-18 11 -73 44 -123
74 -122 74 -129 87 -134 251 l-3 127 146 0 146 0 0 -236z m290 -7 l0 -243 -63
-37 c-35 -20 -67 -37 -72 -37 -4 0 -34 16 -66 36 l-59 35 0 245 0 244 130 0
130 0 0 -243z m310 200 c0 -42 -1 -43 -28 -39 -17 2 -36 -3 -51 -15 l-22 -18
20 -27 c27 -34 27 -35 -9 -30 -29 4 -30 7 -30 53 0 26 -4 51 -10 54 -13 8 -87
-12 -96 -26 -3 -6 -2 -15 4 -21 12 -12 4 -41 -9 -32 -5 3 -9 14 -9 26 0 15 -5
19 -20 15 -18 -5 -20 0 -20 49 l0 54 140 0 140 0 0 -43z m-5 -203 c-3 -18 -15
-44 -26 -58 -17 -22 -226 -156 -243 -156 -3 0 -6 70 -6 155 l0 155 34 -31 c32
-28 34 -33 24 -62 -6 -18 -20 -42 -31 -54 -24 -27 -18 -38 18 -29 15 4 30 17
36 33 14 38 28 53 45 46 20 -8 17 -31 -6 -45 -11 -7 -20 -18 -20 -25 0 -19 35
-16 54 6 10 11 25 16 40 14 19 -4 27 2 39 26 8 17 13 39 10 50 -2 10 0 22 6
25 18 11 13 45 -9 58 -28 18 -25 30 5 22 17 -4 26 -2 27 7 1 8 3 -13 5 -46 3
-33 2 -74 -2 -91z m819 85 c14 -11 33 -34 42 -50 l15 -30 -53 -23 c-73 -32
-128 -49 -135 -42 -3 3 11 33 31 66 23 37 36 69 33 81 -7 27 32 26 67 -2z m76
-164 l0 -35 -87 0 -88 1 80 34 c44 19 83 34 88 35 4 0 7 -16 7 -35z m-1457
-325 c5 -4 2 -21 -6 -36 -27 -55 -29 -98 -6 -165 25 -73 63 -152 92 -191 12
-16 17 -33 13 -44 -5 -14 -18 1 -52 66 -48 90 -66 116 -152 223 l-55 68 18 54
c15 43 17 61 8 88 l-11 35 72 -45 c39 -25 75 -49 79 -53z m359 24 c-2 -25 1
-69 8 -98 12 -53 12 -53 -23 -102 -19 -27 -61 -101 -92 -164 -31 -63 -60 -116
-64 -118 -4 -1 -14 4 -20 12 -10 12 -8 21 12 48 40 53 75 130 97 214 24 93 25
116 5 155 -9 16 -13 34 -10 40 7 10 76 57 86 58 4 1 4 -20 1 -45z m-135 -91
c0 -32 1 -89 3 -128 4 -67 3 -73 -33 -132 -21 -35 -43 -65 -48 -69 -14 -8 -36
13 -74 72 l-34 52 2 121 c1 67 3 121 5 121 2 0 20 -10 41 -22 l39 -22 48 31
c27 17 50 32 50 32 1 1 1 -25 1 -56z m-496 -193 c45 -13 94 -49 114 -83 9 -15
15 -30 13 -33 -3 -2 -31 9 -64 26 -103 51 -173 65 -329 64 -114 -1 -154 -5
-212 -23 -77 -23 -82 -22 -158 24 -22 14 -53 26 -70 27 -16 1 74 5 200 9 261
7 458 3 506 -11z m-224 -87 c-8 -10 -32 -53 -52 -96 -29 -61 -36 -86 -32 -115
11 -72 19 -102 32 -112 11 -9 17 -1 29 41 13 43 14 63 4 115 -9 49 -8 69 2 94
16 38 74 80 111 80 37 0 142 -35 209 -68 48 -25 55 -32 58 -61 6 -61 -59 -121
-131 -121 -52 0 -97 43 -97 93 0 47 32 65 84 46 32 -11 38 -11 46 1 15 25 -27
60 -72 60 -50 0 -74 -13 -93 -50 -47 -91 28 -200 138 -200 73 0 152 50 177
111 7 16 17 29 23 29 19 0 105 -98 131 -147 13 -27 27 -70 31 -96 6 -42 5 -47
-11 -47 -11 0 -86 -5 -169 -11 -177 -12 -302 -29 -445 -63 -58 -13 -122 -27
-142 -30 l-37 -7 22 43 c12 24 23 45 24 47 2 2 10 -2 19 -10 16 -13 17 -11 11
19 l-7 34 33 -20 c44 -28 117 -46 130 -33 24 24 -82 81 -152 81 -30 0 -44 57
-39 159 5 95 25 146 75 192 47 44 124 79 90 42z m1191 -23 c18 -11 41 -34 52
-52 18 -29 20 -44 15 -133 -6 -97 1 -135 23 -121 5 3 15 27 21 53 14 58 -4
138 -48 220 -16 29 -26 53 -21 53 4 0 29 -19 55 -42 67 -59 97 -129 103 -241
5 -97 -2 -114 -63 -144 -33 -17 -85 -62 -85 -75 0 -13 39 -9 70 7 15 8 38 27
49 41 l21 27 0 -27 c0 -38 15 -32 26 12 l10 37 13 -44 c7 -25 28 -60 47 -79
30 -30 36 -33 51 -21 14 12 16 12 11 -1 -8 -23 -114 -15 -339 24 -167 30 -320
52 -498 73 l-43 5 6 41 c10 64 62 159 123 224 l54 58 14 -39 c52 -147 269
-185 334 -57 30 58 27 101 -7 135 -41 38 -88 44 -132 14 -41 -28 -55 -78 -22
-78 11 0 22 8 24 18 3 9 17 23 31 31 64 34 109 -68 54 -123 -29 -29 -85 -40
-137 -26 -49 13 -89 67 -93 125 -2 36 1 41 38 62 47 27 149 62 185 62 14 1 40
-8 58 -19z m-531 -131 c14 -23 14 -31 -2 -85 -16 -52 -19 -56 -25 -34 -5 14
-14 46 -22 72 -23 73 13 107 49 47z m1035 -201 c80 -24 104 -104 48 -160 -39
-38 -47 -31 -26 22 21 52 20 55 -6 80 -14 13 -35 20 -60 20 -40 0 -44 -6 -50
-74 -3 -28 -4 -29 -20 -12 -21 20 -23 74 -5 97 15 19 47 38 66 39 7 0 31 -5
53 -12z m-2029 -9 c12 -7 25 -17 29 -23 12 -17 9 -61 -4 -74 -22 -22 -29 -12
-23 33 7 41 5 45 -18 56 -20 9 -33 9 -57 -1 -42 -17 -52 -40 -45 -102 l6 -53
-20 24 c-12 13 -21 36 -21 53 0 33 23 84 42 91 24 10 89 7 111 -4z m-42 -51
c-1 -5 -1 -19 -1 -33 0 -17 -4 -23 -14 -19 -18 7 -27 30 -19 49 5 16 35 17 34
3z m2059 -49 c0 -10 -9 -23 -20 -29 -22 -12 -23 -8 -14 39 5 25 9 29 20 20 8
-6 14 -20 14 -30z m-815 -49 c83 -11 186 -27 230 -35 324 -59 509 -74 588 -46
21 7 40 11 43 8 3 -2 -7 -56 -21 -118 -37 -164 -37 -164 -213 -163 -122 0
-161 6 -362 47 -266 54 -371 67 -557 67 -196 0 -379 -29 -653 -102 -89 -24
-137 -31 -212 -32 -130 -1 -137 5 -154 147 -7 57 -16 120 -19 141 l-7 37 43
-18 c68 -28 186 -23 364 16 255 55 371 69 585 70 142 1 235 -5 345 -19z
m-1219 0 c19 0 24 -5 24 -25 0 -27 -13 -31 -54 -15 -17 6 -26 17 -26 31 0 15
4 19 16 15 9 -3 27 -6 40 -6z m1994 -30 c20 -12 8 -22 -31 -23 -24 -2 -34 3
-37 16 -3 13 3 17 25 17 15 0 35 -4 43 -10z m-1102 -267 c5 -18 -10 -16 -34 2
-18 15 -18 15 5 13 14 -2 26 -9 29 -15z m121 -26 c13 -34 12 -39 -5 -58 -21
-23 -52 -22 -67 3 -8 11 -7 28 2 58 10 34 16 41 34 38 14 -2 26 -16 36 -41z
m73 21 c-9 -9 -15 -9 -24 0 -9 9 -7 12 12 12 19 0 21 -3 12 -12z m-292 -19
c-14 -6 -36 -20 -49 -32 -13 -12 -21 -15 -16 -7 18 34 39 50 64 49 l26 0 -25
-10z m410 -25 c8 -8 14 -34 14 -57 1 -39 -1 -42 -36 -54 -48 -16 -61 -10 -81
32 l-16 34 35 30 c38 34 65 39 84 15z m-341 -3 c11 -7 9 -17 -7 -55 -23 -51
-27 -53 -78 -31 -26 11 -34 19 -30 31 3 8 6 20 6 24 0 13 51 39 75 39 11 1 26
-3 34 -8z m402 -84 c-5 -13 -17 -29 -27 -37 -18 -14 -18 -14 -1 6 9 12 17 38
18 60 0 33 2 36 9 16 6 -13 6 -32 1 -45z m-501 -33 c19 -6 36 -16 38 -23 5
-15 0 -14 -48 5 -39 16 -40 17 -39 63 l2 46 6 -40 c5 -35 11 -41 41 -51z m273
-90 c55 -65 61 -99 20 -108 -37 -8 -132 -10 -139 -3 -12 12 48 167 64 167 4 0
29 -25 55 -56z m220 -10 c18 -10 26 -19 19 -21 -11 -4 -102 42 -102 52 0 6 41
-10 83 -31z m-518 11 c-16 -8 -39 -14 -50 -14 -18 0 -17 1 5 14 14 8 36 14 50
14 24 -1 24 -1 -5 -14z m158 -40 c-3 -9 -8 -14 -10 -11 -3 3 -2 9 2 15 9 16
15 13 8 -4z m284 -57 c50 -96 52 -104 9 -39 -32 50 -60 111 -51 111 3 0 22
-33 42 -72z m-388 35 c-14 -38 -68 -131 -80 -138 -15 -10 -10 8 12 40 11 17
31 51 45 78 27 52 39 63 23 20z m-287 -14 c-48 -22 -142 -37 -142 -22 0 12
104 40 150 41 l35 0 -43 -19z m1013 -43 c56 -12 58 -13 36 -25 -19 -11 -31
-10 -70 5 -25 9 -55 24 -66 32 -19 13 -18 14 10 7 17 -4 57 -13 90 -19z m-405
-26 c0 -19 -31 -28 -116 -33 -63 -5 -94 -3 -102 5 -27 27 -10 33 103 35 63 0
115 -2 115 -7z"/>
      <path d="M5277 4445 c-8 -18 11 -31 25 -17 11 11 3 32 -12 32 -4 0 -10 -7 -13
-15z"/>
      <path d="M6290 4441 c0 -12 6 -21 16 -21 9 0 14 7 12 17 -5 25 -28 28 -28 4z"/>
      <path d="M5285 4118 c-9 -22 4 -43 17 -30 7 7 7 16 0 29 -10 17 -11 17 -17 1z"/>
      <path d="M6295 4118 c-9 -22 4 -43 17 -30 7 7 7 16 0 29 -10 17 -11 17 -17 1z"/>
      <path d="M5321 3852 c-8 -15 -8 -23 0 -28 17 -10 33 11 21 32 -9 16 -10 16
-21 -4z"/>
      <path d="M6257 3864 c-10 -11 -8 -44 2 -44 6 0 13 4 16 10 8 12 -9 43 -18 34z"/>
      <path d="M5531 3712 c-8 -15 -8 -23 0 -28 17 -10 33 11 21 32 -9 16 -10 16
-21 -4z"/>
      <path d="M6047 3724 c-10 -11 -8 -44 2 -44 6 0 13 4 16 10 8 12 -9 43 -18 34z"/>
      <path d="M5786 3564 c-7 -18 0 -34 15 -34 12 0 12 37 0 44 -5 3 -12 -1 -15
-10z"/>
      <path d="M5780 4693 c0 -6 -13 -16 -30 -22 -33 -11 -35 -19 -18 -68 11 -30 16
-33 53 -33 40 0 42 2 55 39 13 39 8 61 -12 61 -6 0 -20 7 -30 17 -10 9 -18 11
-18 6z m48 -55 c3 -13 -5 -16 -42 -16 -44 0 -58 12 -39 32 14 14 78 2 81 -16z"/>
      <path d="M5791 4530 c-19 -11 -9 -45 14 -45 13 0 21 8 23 21 3 23 -17 37 -37
24z"/>
      <path d="M5841 4450 c-19 -11 -9 -45 14 -45 13 0 21 8 23 21 3 23 -17 37 -37
24z"/>
      <path d="M5716 4428 c-18 -25 -13 -38 15 -38 26 0 35 26 16 45 -14 14 -17 13
-31 -7z"/>
      <path d="M5850 4345 c0 -8 7 -15 15 -15 8 0 15 7 15 15 0 8 -7 15 -15 15 -8 0
-15 -7 -15 -15z"/>
      <path d="M5744 4335 c-11 -5 -19 -15 -17 -22 2 -6 -1 -14 -6 -17 -15 -9 20
-42 44 -42 23 1 59 33 45 41 -5 3 -7 11 -5 18 8 19 -36 35 -61 22z"/>
      <path d="M6010 4673 c0 -5 7 -33 15 -63 8 -30 15 -57 15 -59 0 -2 -16 -1 -35
2 -39 6 -39 6 -25 -42 6 -21 6 -49 0 -75 -5 -22 -8 -42 -6 -43 1 -1 17 1 34 6
37 11 36 13 17 -59 -22 -80 -21 -80 32 -60 45 17 49 17 90 -1 l43 -18 0 27 c0
15 -5 47 -11 71 -5 24 -8 45 -6 48 2 2 17 -1 32 -7 27 -10 27 -10 19 17 -10
36 -10 80 0 116 8 28 8 28 -27 22 l-36 -7 18 66 c10 36 16 66 12 66 -3 0 -24
-7 -48 -16 -39 -15 -45 -15 -83 0 -46 18 -50 19 -50 9z m105 -153 c3 -5 -3
-10 -15 -10 -12 0 -18 5 -15 10 3 6 10 10 15 10 5 0 12 -4 15 -10z m-59 -27
c-1 -15 9 -19 53 -21 51 -3 53 -2 48 19 -4 15 -3 19 4 12 6 -6 9 -21 7 -34 -3
-22 -8 -24 -63 -24 -50 0 -60 3 -63 18 -4 18 4 47 12 47 2 0 3 -8 2 -17z"/>
      <path d="M5145 4066 c-3 -9 -8 -24 -11 -33 -25 -79 -20 -190 8 -181 6 2 20 33
31 68 16 50 18 73 11 108 -9 46 -30 66 -39 38z"/>
      <path d="M5036 3835 c-22 -22 -9 -47 23 -43 32 4 40 33 12 47 -15 8 -23 7 -35
-4z"/>
      <path d="M5107 3797 c-8 -21 8 -39 29 -35 11 2 20 13 22 26 3 18 -1 22 -21 22
-14 0 -27 -6 -30 -13z"/>
      <path d="M6549 4026 c-10 -47 -9 -61 7 -105 10 -28 22 -51 26 -51 13 0 28 47
28 84 0 38 -28 126 -40 126 -5 0 -14 -24 -21 -54z"/>
      <path d="M6480 3915 c-17 -20 -5 -45 20 -45 11 0 23 7 26 15 6 15 -11 45 -26
45 -4 0 -13 -7 -20 -15z"/>
      <path d="M6615 3866 c-24 -17 -13 -46 19 -46 13 0 27 7 30 16 8 22 8 22 -13
33 -13 7 -23 6 -36 -3z"/>
      <path d="M6410 3845 c-16 -19 3 -45 32 -45 24 0 34 26 18 45 -16 19 -34 19
-50 0z"/>
      <path d="M6482 3787 c-9 -10 -8 -18 1 -32 19 -25 59 -12 55 18 -4 26 -39 35
-56 14z"/>
      <path d="M5370 4162 c0 -4 5 -13 12 -20 9 -9 9 -12 -1 -12 -7 0 -11 -6 -8 -15
4 -8 2 -17 -3 -20 -5 -3 -8 -30 -7 -59 3 -67 27 -100 69 -94 23 4 26 2 16 -10
-10 -11 -8 -16 5 -23 9 -6 17 -21 17 -35 0 -15 4 -23 10 -19 6 4 17 2 25 -5 9
-7 15 -8 20 0 3 5 15 10 26 10 16 0 18 5 13 25 -5 19 -2 25 10 25 13 0 15 4 6
19 -14 27 -13 28 12 27 15 -1 23 7 29 29 5 17 5 31 0 33 -4 1 -7 18 -5 37 1
19 -2 35 -6 35 -5 0 -7 19 -4 42 l5 43 -25 -24 c-14 -14 -26 -34 -27 -45 0
-12 -4 -30 -9 -41 -7 -19 -9 -18 -19 8 -8 21 -17 27 -40 27 -31 0 -49 -14 -31
-25 5 -3 10 -16 10 -28 -1 -22 -1 -22 -15 -3 -8 11 -15 32 -15 46 0 16 -11 37
-28 53 -29 27 -42 33 -42 19z"/>
      <path d="M5838 4086 c-10 -24 -3 -73 19 -132 6 -17 5 -18 -11 -5 -16 13 -117
59 -141 64 -5 1 -9 -7 -8 -18 1 -11 -2 -37 -8 -57 -7 -28 -6 -46 7 -78 20 -49
38 -60 103 -60 69 0 111 35 111 91 0 22 -7 53 -15 69 -8 16 -16 43 -17 62 -3
28 1 34 20 36 26 4 28 15 6 36 -23 23 -53 20 -66 -8z"/>
      <path d="M5535 2661 c-59 -6 -60 -6 -63 -40 -2 -21 0 -31 7 -26 6 3 11 12 11
19 0 7 11 18 24 24 22 10 24 8 30 -26 9 -57 7 -132 -4 -132 -5 0 -10 -4 -10
-10 0 -8 99 -3 109 7 3 2 -2 9 -11 16 -10 8 -18 37 -22 85 -6 67 -5 72 13 72
11 0 27 -10 35 -22 19 -27 29 -19 20 16 -7 29 -12 29 -139 17z"/>
      <path d="M5713 2658 c23 -18 13 -165 -12 -171 -9 -3 13 -5 49 -6 49 0 61 2 48
10 -18 10 -26 69 -10 69 4 0 22 -21 41 -45 l33 -45 67 0 c42 0 61 4 52 9 -8 5
-11 16 -8 25 8 21 61 21 81 0 21 -20 20 -34 -1 -34 -33 0 -3 -11 53 -20 33 -5
93 -16 134 -25 101 -20 109 -19 121 11 13 36 5 41 -22 15 -23 -21 -64 -27 -87
-13 -10 7 -9 23 3 81 8 40 15 74 15 77 0 2 8 4 17 4 34 0 -3 18 -51 25 -43 6
-48 5 -38 -8 9 -10 9 -29 1 -73 -14 -83 -18 -94 -34 -94 -21 0 -42 36 -71 122
-14 43 -29 80 -34 83 -5 3 -32 -33 -62 -80 -29 -46 -60 -85 -68 -85 -8 0 -28
17 -44 37 l-30 36 22 15 c28 19 28 57 0 76 -29 21 -192 24 -165 4z m117 -12
c20 -26 8 -61 -22 -64 -30 -4 -31 -1 -22 47 7 33 24 40 44 17z m215 -93 c5
-18 2 -23 -13 -23 -27 0 -32 9 -20 36 12 26 22 22 33 -13z"/>
      <path d="M5368 2636 c-58 -16 -78 -32 -78 -62 0 -28 23 -52 58 -59 57 -12 77
-21 80 -38 5 -24 -42 -41 -71 -25 -12 6 -28 18 -35 27 -10 14 -12 11 -10 -19
3 -35 3 -35 48 -31 59 4 98 25 106 58 9 36 -29 68 -91 77 -40 6 -46 10 -43 29
4 31 44 34 81 6 l30 -22 -6 24 c-4 13 -7 30 -7 37 0 14 -1 14 -62 -2z"/>
      <path d="M5213 2603 c-26 -5 -31 -21 -6 -19 12 1 20 -13 29 -49 18 -66 17 -90
-2 -109 -19 -19 -58 -21 -72 -3 -6 6 -16 40 -23 75 -11 54 -11 65 1 73 15 11
-40 5 -84 -8 -17 -5 -17 -7 -4 -14 9 -5 21 -33 28 -61 19 -84 32 -98 89 -98
55 0 101 28 101 63 0 11 -5 47 -12 79 -10 50 -10 61 2 68 12 8 11 9 -5 8 -11
0 -30 -3 -42 -5z"/>
      <path d="M6403 2578 c17 -12 17 -18 2 -86 -8 -40 -15 -75 -15 -78 0 -2 -8 -4
-17 -5 -21 -1 53 -27 81 -28 15 -1 16 2 6 14 -9 11 -9 27 0 72 17 86 20 93 38
94 27 1 -14 15 -68 24 -39 6 -43 5 -27 -7z"/>
      <path d="M6561 2487 c-24 -39 -53 -82 -63 -93 -19 -21 -19 -22 12 -26 31 -5
53 8 25 14 -14 3 -14 6 -3 21 19 26 88 14 88 -14 0 -11 -6 -19 -12 -19 -9 0
-8 -4 2 -10 8 -5 34 -10 58 -10 38 0 41 2 29 14 -8 8 -29 55 -47 105 -18 50
-35 91 -39 91 -3 0 -26 -33 -50 -73z m41 -39 c7 -15 4 -18 -22 -18 l-31 0 17
33 c12 22 19 27 22 17 3 -8 9 -23 14 -32z"/>
      <path d="M4932 2518 c-5 -13 -19 -52 -32 -88 -13 -36 -30 -73 -38 -82 -14 -17
-13 -18 16 -18 17 0 34 5 37 10 3 6 1 10 -4 10 -6 0 -11 8 -11 19 0 28 69 40
87 14 9 -11 10 -19 3 -21 -27 -9 -5 -17 40 -14 27 2 50 8 50 13 0 5 -4 9 -9 9
-5 0 -32 36 -61 80 -29 44 -57 83 -61 86 -5 3 -13 -5 -17 -18z m21 -80 l17
-28 -29 0 c-29 0 -30 1 -19 31 6 16 11 29 12 27 1 -2 10 -15 19 -30z"/>
      <path d="M5538 5239 c-21 -12 -24 -49 -6 -67 9 -9 83 -12 273 -12 190 0 264 3
273 12 18 18 14 56 -7 68 -26 13 -510 13 -533 -1z m170 -21 c23 -23 13 -38
-26 -38 -39 0 -62 14 -62 37 0 17 71 18 88 1z m200 0 c23 -23 13 -38 -26 -38
-39 0 -62 14 -62 37 0 17 71 18 88 1z m166 -4 c8 -21 -1 -34 -24 -34 -16 0
-30 18 -30 41 0 16 48 10 54 -7z"/>
      <path d="M7766 4878 c-7 -39 33 -190 56 -213 12 -12 30 68 25 106 -6 42 -47
131 -64 136 -6 2 -13 -11 -17 -29z"/>
      <path d="M3783 4806 c5 -74 25 -129 49 -139 10 -3 13 15 12 79 -1 88 -19 134
-51 134 -14 0 -15 -10 -10 -74z"/>
      <path d="M7884 4788 c-7 -22 19 -52 40 -45 17 6 29 34 23 51 -10 24 -54 21
-63 -6z"/>
      <path d="M3684 4725 c-7 -18 12 -45 32 -45 16 0 33 30 27 48 -7 17 -52 15 -59
-3z"/>
      <path d="M7962 4698 c-16 -16 -15 -33 2 -47 30 -25 67 16 40 44 -19 18 -26 19
-42 3z"/>
      <path d="M7870 4685 c-16 -20 -6 -45 19 -45 26 0 45 32 29 48 -16 16 -33 15
-48 -3z"/>
      <path d="M3780 4665 c-17 -20 -5 -45 20 -45 11 0 23 7 26 15 6 15 -11 45 -26
45 -4 0 -13 -7 -20 -15z"/>
      <path d="M3871 4662 c-18 -34 24 -57 49 -27 10 12 10 18 0 30 -17 20 -37 19
-49 -3z"/>
      <path d="M7747 4674 c-11 -12 -8 -41 6 -53 19 -15 50 9 45 35 -3 19 -38 31
-51 18z"/>
      <path d="M7377 4664 c-3 -6 -10 -37 -15 -69 -11 -65 -2 -111 28 -147 17 -20
21 -21 30 -8 16 23 6 139 -16 190 -11 24 -23 40 -27 34z"/>
      <path d="M3691 4631 c-13 -24 9 -57 33 -48 23 9 31 34 16 52 -17 20 -37 19
-49 -4z"/>
      <path d="M7596 4618 c-13 -52 -6 -104 24 -155 17 -29 35 -53 40 -53 12 0 24
82 15 112 -12 45 -50 117 -61 118 -7 0 -14 -10 -18 -22z"/>
      <path d="M7812 4618 c-17 -17 -15 -45 4 -52 25 -10 33 -7 44 15 19 35 -20 65
-48 37z"/>
      <path d="M3775 4576 c-20 -15 -15 -43 10 -52 18 -7 45 12 45 32 0 22 -35 35
-55 20z"/>
      <path d="M3852 4578 c-17 -17 -15 -36 6 -47 13 -7 23 -6 30 1 17 17 15 45 -4
52 -20 8 -18 8 -32 -6z"/>
      <path d="M7865 4551 c-60 -27 -152 -137 -132 -158 4 -3 28 5 55 19 34 19 58
43 86 87 21 34 37 64 35 66 -3 2 -22 -4 -44 -14z"/>
      <path d="M3680 4546 c0 -22 96 -122 130 -136 16 -7 37 -10 45 -6 13 5 8 16
-27 57 -63 76 -148 124 -148 85z"/>
      <path d="M7878 4428 c-57 -67 -98 -127 -98 -144 0 -21 57 4 96 42 35 35 71
131 56 146 -5 5 -29 -15 -54 -44z"/>
      <path d="M7568 4439 c-39 -22 -5 -79 34 -58 21 11 24 39 6 57 -14 14 -18 14
-40 1z"/>
      <path d="M3570 4420 c0 -5 4 -10 9 -10 5 0 33 -16 62 -36 53 -37 121 -60 140
-48 16 9 -40 64 -86 85 -43 20 -125 26 -125 9z"/>
      <path d="M4124 4385 c-4 -9 0 -23 9 -32 21 -21 49 -9 45 19 -4 28 -45 38 -54
13z"/>
      <path d="M4030 4375 c-11 -13 -11 -19 3 -32 21 -21 49 -9 45 19 -4 28 -30 35
-48 13z"/>
      <path d="M3604 4335 c-15 -38 21 -60 47 -29 11 14 10 18 -6 30 -24 18 -34 18
-41 -1z"/>
      <path d="M7576 4333 c-10 -25 20 -46 46 -32 27 14 19 43 -13 47 -18 2 -29 -3
-33 -15z"/>
      <path d="M7677 4343 c-10 -10 -8 -41 3 -48 17 -11 50 5 50 25 0 23 -37 40 -53
23z"/>
      <path d="M4077 4308 c-22 -12 -22 -35 2 -47 24 -13 55 8 46 31 -9 22 -27 28
-48 16z"/>
      <path d="M4162 4308 c-17 -17 -15 -36 7 -47 14 -8 22 -6 35 8 16 17 16 20 1
35 -20 19 -27 20 -43 4z"/>
      <path d="M7927 4299 c-9 -6 -17 -18 -17 -28 0 -28 30 -35 52 -13 18 18 18 19
1 34 -13 12 -23 14 -36 7z"/>
      <path d="M8032 4278 c-27 -27 -4 -54 31 -36 21 11 22 34 1 42 -20 8 -18 8 -32
-6z"/>
      <path d="M3784 4246 c-9 -22 15 -48 40 -44 15 2 21 10 21 28 0 20 -6 26 -28
28 -18 2 -29 -2 -33 -12z"/>
      <path d="M3872 4238 c-7 -7 -8 -17 -1 -30 12 -22 32 -23 49 -3 23 28 -21 60
-48 33z"/>
      <path d="M7823 4234 c-3 -8 1 -22 9 -30 13 -13 17 -12 32 5 10 11 15 25 11 30
-10 17 -45 13 -52 -5z"/>
      <path d="M7952 4218 c-17 -17 -15 -36 7 -48 30 -15 53 -2 49 29 -3 29 -35 40
-56 19z"/>
      <path d="M3737 4193 c-4 -3 -7 -15 -7 -25 0 -20 44 -26 55 -8 14 22 -30 52
-48 33z"/>
      <path d="M7733 4190 c-13 -5 -23 -13 -23 -18 0 -12 104 -62 131 -62 57 0 91
24 52 36 -10 3 -41 17 -68 30 -55 26 -60 27 -92 14z"/>
      <path d="M3817 4173 c-13 -12 -7 -44 9 -50 23 -9 48 25 33 44 -12 14 -32 17
-42 6z"/>
      <path d="M3950 4155 c-16 -19 3 -45 32 -45 24 0 34 26 18 45 -16 19 -34 19
-50 0z"/>
      <path d="M4109 4094 c-10 -12 -9 -18 4 -31 13 -13 19 -14 31 -3 21 17 20 27
-3 39 -14 8 -22 7 -32 -5z"/>
      <path d="M4174 4029 c-18 -5 -47 -24 -65 -42 l-34 -32 47 -3 c34 -2 60 4 97
22 56 29 70 44 50 57 -17 11 -54 10 -95 -2z"/>
      <path d="M3586 3923 c9 -48 26 -82 56 -110 32 -30 78 -47 92 -33 7 7 6 10 -2
10 -6 0 -23 24 -38 53 -29 57 -80 117 -101 117 -11 0 -12 -9 -7 -37z"/>
      <path d="M7980 3879 c-33 -13 -73 -52 -121 -116 -44 -59 -46 -63 -21 -63 39 0
117 66 173 148 26 36 27 42 12 41 -10 0 -29 -5 -43 -10z"/>
      <path d="M3474 3816 c-8 -21 3 -36 27 -36 15 0 20 6 17 22 -4 27 -35 37 -44
14z"/>
      <path d="M3792 3811 c4 -23 86 -61 131 -61 40 0 77 14 77 30 0 13 -56 28 -138
38 -64 7 -72 7 -70 -7z"/>
      <path d="M3564 3806 c-16 -12 -16 -16 -4 -30 17 -21 54 -17 58 6 5 25 -31 41
-54 24z"/>
      <path d="M8053 3803 c-18 -7 -16 -42 3 -50 8 -3 23 1 31 10 13 13 14 19 3 31
-13 17 -17 18 -37 9z"/>
      <path d="M8155 3791 c-14 -16 -13 -19 5 -36 16 -14 22 -15 35 -5 8 7 15 20 15
30 0 25 -35 32 -55 11z"/>
      <path d="M3400 3755 c-16 -20 -6 -45 19 -45 26 0 45 32 29 48 -16 16 -33 15
-48 -3z"/>
      <path d="M6883 3744 c-3 -8 2 -23 11 -32 15 -15 17 -15 32 0 21 21 11 48 -16
48 -11 0 -23 -7 -27 -16z"/>
      <path d="M3670 3726 c0 -29 11 -39 35 -30 24 10 15 48 -12 52 -19 3 -23 -1
-23 -22z"/>
      <path d="M3504 3726 c-10 -26 4 -48 28 -44 17 2 23 10 23 28 0 18 -6 26 -23
28 -13 2 -25 -3 -28 -12z"/>
      <path d="M3590 3725 c-10 -12 -10 -18 0 -30 16 -19 39 -19 46 0 6 15 -11 45
-26 45 -4 0 -13 -7 -20 -15z"/>
      <path d="M6990 3725 c-17 -21 -5 -45 24 -45 27 0 42 26 25 46 -15 18 -33 18
-49 -1z"/>
      <path d="M7944 3715 c-10 -25 22 -53 44 -39 9 6 17 20 17 30 0 25 -52 33 -61
9z"/>
      <path d="M8077 3713 c-13 -12 -7 -41 9 -47 24 -9 57 23 43 41 -12 14 -41 18
-52 6z"/>
      <path d="M7297 3693 c-13 -12 -7 -41 10 -47 21 -8 48 17 40 38 -6 16 -38 22
-50 9z"/>
      <path d="M6853 3673 c-18 -7 -16 -28 3 -43 12 -11 18 -10 31 3 13 13 14 19 3
31 -13 17 -17 18 -37 9z"/>
      <path d="M4138 3659 c-36 -20 -12 -68 26 -53 22 9 27 32 10 49 -9 8 -16 15
-17 15 -1 0 -10 -5 -19 -11z"/>
      <path d="M6941 3661 c-19 -12 -6 -41 19 -41 25 0 38 29 19 41 -8 5 -16 9 -19
9 -3 0 -11 -4 -19 -9z"/>
      <path d="M7470 3655 c-24 -29 21 -60 48 -33 9 9 8 16 -5 30 -20 22 -27 22 -43
3z"/>
      <path d="M7380 3645 c-11 -13 -11 -19 2 -31 13 -13 20 -14 37 -4 13 6 21 19
19 28 -4 23 -41 27 -58 7z"/>
      <path d="M7960 3645 c-19 -7 -36 -17 -37 -22 -4 -11 99 -43 138 -43 34 0 112
25 116 37 4 10 -128 44 -162 42 -11 -1 -36 -7 -55 -14z"/>
      <path d="M3495 3637 c-16 -7 -39 -18 -50 -24 -17 -11 -18 -14 -5 -23 34 -25
220 17 220 49 0 15 -127 13 -165 -2z"/>
      <path d="M3900 3635 c-18 -21 -5 -47 22 -43 26 3 37 36 16 49 -18 12 -24 11
-38 -6z"/>
      <path d="M7634 3635 c-6 -15 12 -45 27 -45 4 0 15 7 24 16 12 12 13 19 4 30
-15 19 -48 18 -55 -1z"/>
      <path d="M3780 3630 c-20 -12 -2 -44 27 -48 24 -4 38 25 22 44 -13 16 -28 17
-49 4z"/>
      <path d="M4984 3615 c-4 -8 -3 -22 0 -31 8 -21 50 -14 54 10 6 31 -43 50 -54
21z"/>
      <path d="M5080 3605 c-11 -13 -11 -19 2 -32 22 -22 60 -8 56 20 -4 27 -40 34
-58 12z"/>
      <path d="M7753 3584 c-3 -8 2 -23 11 -32 15 -15 17 -15 32 0 21 21 11 48 -16
48 -11 0 -23 -7 -27 -16z"/>
      <path d="M3850 3565 c-17 -21 -5 -45 24 -45 31 0 43 30 20 47 -23 17 -29 16
-44 -2z"/>
      <path d="M7673 3564 c-3 -8 1 -22 9 -30 12 -12 17 -12 33 -1 23 17 14 47 -15
47 -11 0 -23 -7 -27 -16z"/>
      <path d="M7914 3568 c-3 -5 12 -30 33 -56 59 -69 152 -117 123 -62 -7 14 -5
19 10 23 29 7 37 37 15 53 -16 12 -22 12 -39 0 -18 -12 -25 -10 -56 14 -39 31
-77 43 -86 28z"/>
      <path d="M8132 3558 c-23 -28 27 -57 53 -31 9 8 14 20 12 27 -5 16 -52 19 -65
4z"/>
      <path d="M3766 3545 c-21 -22 -16 -39 12 -43 28 -4 40 24 20 44 -13 14 -17 14
-32 -1z"/>
      <path d="M7467 3516 c39 -65 175 -150 156 -98 -25 69 -105 142 -156 142 l-27
0 27 -44z"/>
      <path d="M7743 3509 c-17 -17 -4 -39 22 -39 30 0 41 16 25 35 -15 18 -32 19
-47 4z"/>
      <path d="M8144 3475 c-10 -25 4 -45 30 -45 25 0 44 30 31 50 -10 15 -55 12
-61 -5z"/>
      <path d="M6890 3228 c-70 -36 -66 -52 13 -44 67 7 157 39 157 56 0 6 -28 10
-63 10 -45 0 -75 -6 -107 -22z"/>
      <path d="M4597 3176 c-7 -19 18 -40 39 -32 8 3 14 14 12 23 -4 22 -43 29 -51
9z"/>
      <path d="M6982 3168 c-17 -17 -15 -45 4 -52 25 -10 33 -7 45 16 10 18 8 24 -7
35 -22 16 -27 16 -42 1z"/>
      <path d="M7210 3148 c-20 -5 -49 -20 -65 -33 l-30 -23 38 -7 c51 -10 114 1
161 28 61 34 58 47 -11 46 -32 -1 -74 -5 -93 -11z"/>
      <path d="M4144 3115 c-9 -23 3 -45 26 -45 25 0 37 25 20 45 -16 19 -39 19 -46
0z"/>
      <path d="M4234 3096 c-8 -21 3 -36 27 -36 15 0 20 6 17 22 -4 27 -35 37 -44
14z"/>
      <path d="M3487 3058 c11 -13 30 -40 42 -61 26 -42 79 -87 104 -87 23 0 22 3
-18 65 -34 54 -99 105 -132 105 -15 0 -14 -3 4 -22z"/>
      <path d="M7476 3040 c-45 -23 -88 -59 -81 -70 5 -8 92 3 151 19 47 12 97 48
89 62 -11 17 -118 9 -159 -11z"/>
      <path d="M7312 3038 c-18 -18 -15 -36 9 -48 26 -14 51 4 47 34 -3 24 -37 33
-56 14z"/>
      <path d="M4170 3025 c-10 -12 -10 -18 0 -30 7 -8 18 -15 25 -15 19 0 36 25 29
44 -8 20 -38 21 -54 1z"/>
      <path d="M3730 3025 c0 -11 105 -107 127 -116 30 -11 73 -12 73 -1 0 12 -89
86 -127 105 -30 16 -73 23 -73 12z"/>
      <path d="M4271 3016 c-9 -11 -8 -18 5 -30 12 -13 19 -14 30 -5 19 15 18 35 -2
43 -21 8 -20 8 -33 -8z"/>
      <path d="M7825 3011 c-35 -21 -79 -70 -101 -112 -13 -26 -13 -29 2 -29 31 0
81 40 118 93 20 29 36 56 36 60 0 12 -24 8 -55 -12z"/>
      <path d="M8038 2977 c-28 -28 -88 -125 -88 -142 0 -26 98 43 119 84 15 28 23
91 12 91 -6 0 -25 -15 -43 -33z"/>
      <path d="M3372 2988 c-24 -24 -5 -59 29 -51 23 6 26 48 3 57 -20 8 -18 8 -32
-6z"/>
      <path d="M3271 2966 c-17 -20 -2 -46 25 -46 29 0 41 24 24 45 -16 19 -34 19
-49 1z"/>
      <path d="M3460 2955 c-10 -12 -10 -18 0 -30 17 -21 54 -15 58 9 7 32 -36 48
-58 21z"/>
      <path d="M3740 2935 c-11 -13 -4 -45 10 -45 22 0 40 14 40 30 0 22 -35 33 -50
15z"/>
      <path d="M8188 2933 c-10 -12 -9 -18 7 -29 25 -18 44 -18 52 2 12 31 -36 54
-59 27z"/>
      <path d="M7884 2925 c-9 -23 3 -45 24 -45 29 0 48 26 32 45 -7 8 -21 15 -32
15 -10 0 -21 -7 -24 -15z"/>
      <path d="M8093 2914 c-6 -16 12 -34 34 -34 15 0 35 35 26 44 -13 12 -54 6 -60
-10z"/>
      <path d="M3319 2888 c-10 -18 -8 -24 7 -35 10 -7 23 -12 29 -10 16 5 18 49 3
58 -20 13 -26 11 -39 -13z"/>
      <path d="M3414 2886 c-10 -26 4 -48 28 -44 17 2 23 10 23 28 0 18 -6 26 -23
28 -13 2 -25 -3 -28 -12z"/>
      <path d="M7810 2876 c-27 -33 18 -72 48 -42 13 13 14 20 6 34 -15 23 -38 26
-54 8z"/>
      <path d="M4203 2854 c-3 -8 2 -23 11 -32 15 -15 17 -15 32 0 21 21 11 48 -16
48 -11 0 -23 -7 -27 -16z"/>
      <path d="M8067 2849 c-12 -7 -15 -17 -11 -35 6 -22 4 -24 -34 -24 -48 0 -64
-16 -29 -29 14 -6 28 -15 32 -21 20 -32 155 -67 155 -41 0 5 -21 28 -47 50
-44 39 -45 42 -27 56 15 11 17 18 8 31 -13 23 -25 26 -47 13z"/>
      <path d="M8167 2854 c-10 -11 -9 -42 3 -49 20 -12 51 6 48 28 -3 22 -36 35
-51 21z"/>
      <path d="M7383 2834 c-8 -21 19 -46 40 -38 9 3 17 17 17 30 0 19 -5 24 -25 24
-14 0 -28 -7 -32 -16z"/>
      <path d="M3697 2793 c-13 -12 -7 -41 10 -47 21 -8 48 17 40 38 -6 16 -38 22
-50 9z"/>
      <path d="M3833 2771 c-42 -31 -123 -124 -123 -143 0 -23 79 18 105 54 76 109
81 135 18 89z"/>
      <path d="M4083 2764 c-3 -8 1 -22 9 -30 12 -12 17 -12 33 0 16 12 17 16 6 30
-17 20 -40 21 -48 0z"/>
      <path d="M4197 2774 c-4 -4 -7 -16 -7 -26 0 -15 6 -19 28 -16 19 2 27 9 27 23
0 20 -33 33 -48 19z"/>
      <path d="M7447 2774 c-15 -15 -6 -43 15 -50 22 -7 52 19 45 41 -4 12 -50 19
-60 9z"/>
      <path d="M7725 2771 c-8 -14 27 -79 63 -118 28 -30 76 -52 88 -40 3 3 -14 33
-38 67 -44 63 -101 109 -113 91z"/>
      <path d="M7866 2754 c-20 -19 -5 -54 24 -54 26 0 45 36 29 56 -15 18 -34 18
-53 -2z"/>
      <path d="M4360 2715 c-16 -19 -6 -45 19 -45 25 0 34 26 15 45 -19 18 -19 18
-34 0z"/>
      <path d="M4443 2659 c-35 -11 -63 -24 -63 -29 0 -15 70 -33 110 -27 56 7 139
46 120 56 -35 19 -106 19 -167 0z"/>
      <path d="M7415 2653 c18 -78 97 -203 127 -203 11 0 -2 80 -19 115 -17 33 -92
115 -106 115 -5 0 -6 -12 -2 -27z"/>
      <path d="M4187 2655 c-62 -16 -125 -60 -148 -104 -10 -19 -17 -37 -15 -39 8
-7 112 52 161 92 27 22 52 42 54 43 1 1 1 6 0 11 -3 6 -23 4 -52 -3z"/>
      <path d="M7343 2574 c-8 -20 19 -46 39 -39 19 7 31 32 22 46 -9 15 -54 10 -61
-7z"/>
      <path d="M7101 2569 c-71 -14 -70 -25 8 -45 56 -14 111 -6 143 23 l20 18 -24
6 c-32 9 -94 9 -147 -2z"/>
      <path d="M4184 2535 c-9 -23 3 -45 26 -45 25 0 37 25 20 45 -16 19 -39 19 -46
0z"/>
      <path d="M4274 2515 c-7 -17 12 -45 31 -45 7 0 18 7 25 15 10 12 10 18 0 30
-16 19 -49 19 -56 0z"/>
      <path d="M7317 2509 c-23 -14 -21 -46 4 -59 15 -9 24 -8 35 1 33 27 -1 79 -39
58z"/>
      <path d="M7403 2503 c-18 -7 -16 -52 3 -60 23 -9 51 23 38 44 -12 19 -23 24
-41 16z"/>
      <path d="M4220 2455 c-26 -31 13 -82 44 -56 19 16 21 42 4 59 -16 16 -33 15
-48 -3z"/>
      <path d="M4298 2381 c-38 -35 -68 -67 -68 -72 0 -13 33 -11 72 6 38 15 72 70
66 107 -3 20 -11 15 -70 -41z"/>
      <path d="M7062 2428 c-18 -18 -15 -36 7 -48 15 -7 23 -6 35 6 18 17 14 29 -13
43 -12 7 -22 6 -29 -1z"/>
      <path d="M4456 2398 c16 -91 35 -143 60 -169 40 -42 48 -37 40 27 -7 63 -26
106 -64 147 -34 35 -43 34 -36 -5z"/>
      <path d="M7147 2413 c-12 -11 -7 -33 8 -39 20 -8 45 13 38 32 -5 14 -34 19
-46 7z"/>
      <path d="M7280 2385 c0 -43 67 -145 96 -145 17 0 18 33 3 63 -14 26 -80 97
-91 97 -4 0 -8 -7 -8 -15z"/>
      <path d="M7210 2315 c-18 -21 -5 -45 25 -45 14 0 28 7 31 15 7 17 -12 45 -31
45 -7 0 -18 -7 -25 -15z"/>
      <path d="M7086 2257 c-40 -40 -76 -111 -62 -124 4 -4 116 84 116 92 0 1 7 19
15 39 15 35 14 36 -5 36 -11 0 -40 -20 -64 -43z"/>
      <path d="M7230 2225 c-9 -11 -10 -19 -3 -26 17 -17 48 -6 48 16 0 25 -28 31
-45 10z"/>
      <path d="M4010 1373 c-80 -29 -79 -137 2 -166 52 -18 116 46 103 104 -9 41
-68 75 -105 62z"/>
      <path d="M5844 1370 c-124 -18 -257 -117 -306 -227 -33 -73 -37 -219 -9 -294
39 -104 138 -191 255 -224 85 -25 264 -17 361 16 l70 24 6 104 c5 93 8 106 28
122 13 11 32 19 42 19 10 0 19 7 19 15 0 13 -24 15 -177 13 -130 -2 -177 -6
-181 -15 -2 -8 7 -13 25 -13 56 -1 66 -19 71 -134 l5 -104 -57 -13 c-111 -25
-210 20 -255 115 -42 90 -47 289 -10 396 37 105 125 167 223 157 99 -10 181
-70 226 -167 13 -27 27 -50 32 -50 4 0 8 61 8 135 0 125 -9 166 -25 115 -12
-38 -38 -41 -111 -16 -81 27 -169 37 -240 26z"/>
      <path d="M977 1338 c-61 -145 -274 -609 -291 -635 -11 -17 -36 -39 -54 -47
-18 -9 -30 -21 -27 -26 4 -6 58 -10 126 -10 91 0 119 3 119 13 0 7 -19 17 -42
23 -40 8 -43 12 -46 45 -2 19 6 56 17 82 l20 47 129 0 128 0 27 -65 c40 -96
35 -115 -29 -115 -15 0 -24 -6 -24 -15 0 -13 26 -15 175 -15 143 0 175 3 175
14 0 8 -11 17 -25 20 -14 4 -34 23 -49 49 -18 31 -254 558 -293 655 -9 21 -22
13 -36 -20z m3 -335 c25 -58 47 -110 48 -115 2 -4 -42 -8 -97 -8 -56 0 -101 3
-101 8 0 13 93 222 99 222 3 0 26 -48 51 -107z"/>
      <path d="M3590 1345 c0 -8 9 -15 20 -15 10 0 24 -9 30 -19 6 -12 10 -134 10
-325 0 -264 -2 -307 -16 -320 -8 -9 -22 -16 -30 -16 -8 0 -14 -7 -14 -15 0
-13 22 -15 134 -15 74 0 137 4 141 9 3 6 -7 16 -22 23 -18 8 -30 24 -34 43 -4
17 -7 173 -8 348 l-1 317 -105 0 c-87 0 -105 -3 -105 -15z"/>
      <path d="M2457 1278 c-29 -49 -84 -109 -141 -155 -42 -34 -41 -53 5 -53 l29 0
0 -180 c0 -200 6 -227 60 -255 66 -34 150 -11 191 51 33 50 17 61 -25 19 -29
-29 -39 -31 -60 -9 -13 13 -16 45 -16 195 l0 179 60 0 60 0 0 30 0 30 -60 0
-60 0 0 95 c0 52 -4 95 -9 95 -5 0 -21 -19 -34 -42z"/>
      <path d="M10815 1265 c-20 -30 -66 -81 -101 -114 -35 -32 -64 -63 -64 -70 0
-6 14 -11 30 -11 l30 0 0 -162 c0 -186 8 -226 52 -263 29 -24 38 -27 91 -23
54 4 63 8 93 41 30 33 44 67 28 67 -3 0 -19 -11 -36 -25 -23 -20 -33 -23 -49
-15 -18 10 -19 23 -19 195 l0 184 58 3 c54 3 57 4 60 31 3 27 3 27 -57 27
l-61 0 0 89 c0 50 -4 92 -9 96 -5 3 -26 -19 -46 -50z"/>
      <path d="M2026 1140 c-58 -18 -106 -85 -106 -150 0 -54 35 -105 107 -157 101
-73 125 -98 121 -130 -4 -37 -45 -57 -85 -42 -39 14 -77 53 -98 100 -10 21
-22 39 -27 39 -4 0 -8 -43 -8 -95 0 -99 6 -111 40 -80 15 14 21 14 60 0 110
-39 200 3 231 105 25 84 -14 147 -164 258 -67 49 -76 65 -52 92 39 43 115 9
156 -71 11 -22 24 -39 29 -39 11 0 14 163 3 173 -3 4 -15 0 -25 -10 -17 -15
-22 -15 -69 0 -56 19 -70 19 -113 7z"/>
      <path d="M2991 1143 c-13 -3 -46 -27 -73 -55 l-48 -49 0 45 0 46 -105 0 c-69
0 -105 -4 -105 -11 0 -6 9 -13 20 -16 11 -3 23 -15 25 -27 3 -11 4 -109 3
-216 -3 -191 -3 -195 -25 -205 -13 -5 -23 -15 -23 -22 0 -10 33 -13 135 -13
113 0 135 2 135 15 0 8 -8 15 -18 15 -37 0 -42 20 -42 157 0 143 14 204 52
224 16 9 26 7 49 -10 58 -43 119 -17 119 52 0 27 -7 41 -26 56 -27 21 -30 22
-73 14z"/>
      <path d="M3267 1140 c-93 -24 -157 -80 -157 -141 0 -36 39 -69 82 -69 62 0 86
51 51 112 -17 28 -17 30 1 44 28 20 80 18 99 -4 12 -13 17 -37 17 -79 l0 -60
-52 -24 c-85 -39 -167 -96 -188 -131 -48 -78 -5 -168 80 -168 39 0 131 38 145
60 9 15 25 12 25 -4 0 -27 50 -56 96 -56 36 0 51 6 81 33 22 21 33 38 29 46
-6 9 -11 9 -22 0 -9 -7 -18 -8 -24 -3 -5 5 -10 86 -12 181 -3 189 -9 207 -74
245 -37 21 -126 30 -177 18z m81 -412 c-49 -32 -98 -9 -98 45 0 23 12 42 53
81 l52 51 3 -84 c2 -61 -1 -87 -10 -93z"/>
      <path d="M4363 1140 c-103 -21 -177 -101 -153 -164 18 -48 93 -63 130 -26 25
25 25 44 0 85 -19 30 -19 34 -5 49 23 23 81 20 105 -4 15 -15 20 -33 20 -77
l-1 -58 -80 -40 c-151 -74 -211 -151 -175 -227 35 -74 136 -77 224 -8 l26 21
13 -25 c17 -33 43 -46 90 -46 42 0 96 28 112 58 13 25 4 34 -20 19 -33 -20
-39 8 -39 185 l0 168 -35 39 c-50 55 -114 70 -212 51z m97 -319 c0 -71 -2 -82
-22 -95 -46 -33 -88 -9 -88 50 0 28 9 43 46 79 25 25 50 45 55 45 5 0 9 -36 9
-79z"/>
      <path d="M4994 1137 c-16 -7 -44 -22 -62 -35 l-32 -23 0 25 0 26 -105 0 c-105
0 -132 -10 -80 -30 l25 -10 -2 -212 c-3 -210 -3 -213 -25 -223 -13 -5 -23 -15
-23 -22 0 -10 31 -13 124 -13 69 0 127 4 130 9 3 5 -5 16 -19 25 l-25 16 0
174 0 174 31 26 c17 14 39 26 49 26 40 0 45 -24 45 -212 0 -174 -1 -180 -22
-198 -43 -34 -29 -40 101 -40 123 0 163 10 113 29 -13 5 -27 17 -31 26 -3 9
-6 94 -6 188 0 144 -3 178 -18 206 -32 65 -104 94 -168 68z"/>
      <path d="M6513 1141 c-104 -26 -177 -136 -176 -266 1 -169 106 -275 260 -263
78 7 140 49 176 120 73 142 29 326 -93 388 -44 22 -122 32 -167 21z m101 -57
c26 -25 31 -62 30 -214 0 -184 -20 -233 -88 -216 -48 12 -58 57 -54 236 2 129
6 161 21 183 20 31 66 37 91 11z"/>
      <path d="M7453 1134 c-56 -21 -126 -98 -143 -160 -53 -189 42 -364 197 -364
82 0 155 45 193 120 27 53 13 57 -32 10 -33 -34 -45 -40 -81 -40 -23 0 -52 7
-64 15 -32 22 -62 77 -72 129 l-8 45 136 3 136 3 -2 44 c-3 62 -47 147 -92
176 -47 32 -113 39 -168 19z m87 -34 c24 -13 40 -62 40 -121 l0 -49 -71 0 -72
0 7 56 c7 59 16 82 42 108 18 19 28 20 54 6z"/>
      <path d="M8065 1131 c-23 -10 -55 -36 -73 -57 l-31 -39 -1 48 0 47 -105 0
c-105 0 -132 -10 -80 -30 l25 -10 -2 -212 c-3 -210 -3 -213 -25 -223 -13 -5
-23 -15 -23 -22 0 -10 33 -13 135 -12 110 0 135 3 135 15 0 8 -8 14 -18 14
-36 0 -42 20 -42 149 0 143 9 187 45 221 l25 24 30 -22 c59 -44 120 -19 120
49 0 68 -47 92 -115 60z"/>
      <path d="M8510 1135 c-19 -9 -47 -28 -62 -42 l-28 -27 0 32 0 32 -105 0 c-105
0 -126 -7 -81 -28 31 -14 36 -45 35 -231 -1 -176 -5 -202 -37 -216 -46 -20
-13 -30 111 -33 109 -2 127 0 127 13 0 8 -7 15 -15 15 -28 0 -35 39 -35 200
l0 162 29 29 c35 35 64 37 85 7 23 -33 23 -359 0 -382 -8 -9 -20 -16 -25 -16
-5 0 -9 -7 -9 -15 0 -13 18 -15 127 -13 83 2 128 7 130 14 2 7 -7 14 -20 18
-33 8 -37 34 -37 228 0 173 -9 212 -55 242 -36 24 -95 28 -135 11z"/>
      <path d="M9097 1136 c-22 -8 -49 -24 -61 -35 -29 -27 -36 -26 -36 4 l0 25
-105 0 c-63 0 -105 -4 -105 -10 0 -5 5 -10 10 -10 6 0 19 -9 30 -20 19 -19 20
-33 20 -212 0 -106 -4 -198 -8 -204 -4 -6 -17 -16 -30 -23 -42 -22 -11 -31
113 -31 124 0 159 10 112 31 -33 15 -37 41 -37 213 l0 142 33 32 c38 37 81 43
97 12 7 -12 9 -88 8 -202 -3 -179 -3 -183 -25 -193 -13 -5 -23 -15 -23 -22 0
-10 32 -13 130 -13 98 0 130 3 130 13 0 7 -10 17 -22 22 -22 10 -23 14 -26
186 l-2 177 31 26 c17 14 41 26 54 26 44 0 50 -22 53 -194 4 -171 -4 -214 -39
-223 -11 -3 -18 -11 -16 -17 5 -14 246 -21 260 -7 6 6 0 14 -14 22 -13 6 -27
17 -31 23 -4 6 -8 89 -8 184 0 189 -7 223 -55 260 -58 46 -128 38 -208 -23
l-44 -34 -11 24 c-24 52 -107 76 -175 51z"/>
      <path d="M9838 1136 c-111 -40 -168 -131 -168 -267 0 -81 27 -163 68 -202 56
-54 155 -73 225 -43 39 16 91 66 113 107 25 48 5 53 -35 10 -34 -37 -43 -41
-85 -41 -37 0 -52 5 -72 25 -31 31 -63 101 -64 138 l0 27 136 0 137 0 -6 54
c-10 97 -66 174 -145 196 -47 13 -58 12 -104 -4z m86 -45 c19 -21 40 -141 27
-154 -4 -4 -37 -7 -72 -5 l-64 3 4 50 c7 100 61 155 105 106z"/>
      <path d="M10417 1140 c-16 -5 -44 -20 -63 -35 l-34 -26 0 25 0 26 -105 0 c-69
0 -105 -4 -105 -11 0 -6 9 -13 20 -16 11 -3 23 -15 25 -27 3 -11 4 -109 3
-216 -3 -191 -3 -195 -25 -205 -13 -5 -23 -15 -23 -22 0 -10 31 -13 124 -13
69 0 127 4 130 9 3 5 -5 16 -19 25 l-25 16 0 174 0 174 31 26 c17 14 38 26 48
26 37 0 41 -18 41 -212 0 -177 -1 -189 -20 -200 -11 -7 -20 -18 -20 -25 0 -10
31 -13 125 -13 104 0 125 2 125 15 0 8 -6 15 -14 15 -8 0 -18 6 -23 13 -4 6
-10 98 -13 202 -4 160 -8 195 -23 218 -34 52 -100 76 -160 57z"/>
      <path d="M1340 1120 c0 -6 8 -14 18 -17 9 -4 20 -11 24 -17 4 -6 8 -85 8 -176
0 -91 4 -181 10 -199 29 -102 151 -133 235 -60 l34 30 3 -28 3 -28 103 -3 c86
-2 102 0 102 13 0 8 -7 15 -15 15 -30 0 -35 39 -35 259 l0 221 -105 0 c-105 0
-132 -10 -80 -30 l25 -10 0 -173 c0 -171 0 -175 -25 -201 -25 -28 -63 -34 -83
-14 -9 9 -12 72 -12 220 l0 208 -105 0 c-65 0 -105 -4 -105 -10z"/>
      <path d="M3890 1122 c0 -4 14 -13 30 -19 l30 -11 -2 -214 -3 -213 -28 -13
c-15 -7 -25 -17 -22 -23 4 -5 67 -9 141 -9 112 0 134 2 134 15 0 8 -9 15 -20
15 -35 0 -40 31 -40 259 l0 221 -110 0 c-60 0 -110 -4 -110 -8z"/>
      <path d="M6790 1120 c0 -5 9 -14 20 -20 25 -13 47 -56 150 -298 62 -144 87
-192 98 -190 10 2 52 87 114 233 66 156 106 237 123 250 14 12 25 24 25 28 0
4 -38 7 -85 7 -89 0 -105 -8 -55 -27 44 -17 43 -26 -52 -263 -9 -24 -11 -22
-38 36 -53 117 -80 192 -74 208 3 8 14 18 25 21 50 16 8 25 -116 25 -80 0
-135 -4 -135 -10z"/>
    </g>
  </svg>

  <!-- Vertical divider line - centered with equal gaps -->
  <line x1="369.2" y1="28" x2="369.2" y2="198" stroke="#000000" stroke-width="1.5"/>

  <!-- NCRIS logo (right), bottom-aligned -->
  <svg x="396.2" y="5" width="276.9" height="200" viewBox="0 0 290.2 180" preserveAspectRatio="xMidYMax meet">
    <g>
        <g>
            <g>
                <g>
                    <path d="m35.3,122.39l-23.9-36.3v36.3H3.6v-51.6h7.2l23.8,36.2v-36.2h7.8v51.6h-7.1Z" stroke-width="0"/>
                    <path d="m71.1,122.79c-5.4,0-10-2-13.6-5.5-5.1-5.1-5-10.8-5-20.7s-.1-15.7,5-20.7c3.6-3.6,8.2-5.5,13.6-5.5,9.5,0,16.6,5.6,18.4,15.9h-8c-1.2-5.2-4.7-8.8-10.4-8.8-3,0-5.8,1.2-7.6,3.1-2.5,2.8-3.1,5.7-3.1,16.1s.6,13.3,3.1,16.1c1.8,2,4.6,3.1,7.6,3.1,5.7,0,9.3-3.6,10.5-8.8h7.9c-1.7,10.2-9,15.7-18.4,15.7Z" stroke-width="0"/>
                    <path d="m127,122.39l-10.9-21.7h-9.8v21.7h-7.8v-51.6h20c9.8,0,16,6.3,16,15.1,0,7.4-4.5,12.1-10.3,13.7l11.9,22.8h-9.1Zm-9-44.6h-11.6v16.2h11.6c5.2,0,8.8-3,8.8-8-.1-5.1-3.6-8.2-8.8-8.2Z" stroke-width="0"/>
                    <path d="m144.6,122.39v-51.6h7.8v51.6h-7.8Z" stroke-width="0"/>
                    <path d="m178.1,122.79c-7.8,0-13.3-1.8-18.3-6.8l5.2-5.1c3.8,3.8,7.9,4.9,13.2,4.9,6.7,0,10.7-2.9,10.7-7.9,0-2.2-.7-4.1-2-5.4-1.3-1.2-2.6-1.7-5.7-2.2l-6.1-.9c-4.2-.6-7.5-2-9.8-4.1-2.5-2.4-3.8-5.7-3.8-9.9,0-9,6.5-15.1,17.2-15.1,6.8,0,11.6,1.7,16,5.9l-5,4.9c-3.2-3-6.9-4-11.2-4-6.1,0-9.4,3.5-9.4,8,0,1.9.6,3.6,2,4.8,1.3,1.2,3.4,2,5.8,2.4l5.9.9c4.8.7,7.5,1.9,9.6,3.8,2.8,2.5,4.2,6.2,4.2,10.6.1,9.6-7.7,15.2-18.5,15.2Z" stroke-width="0"/>
                </g>
                <g>
                    <path d="m14.4,149.5l-9.1-13.7v13.7h-1.8v-17.1h1.7l9.1,13.7v-13.7h1.8v17.1h-1.7Z" stroke-width="0"/>
                    <path d="m27.4,149.5v-1.1c-1,1-1.8,1.3-3.4,1.3s-2.6-.3-3.3-1.1c-.6-.6-.9-1.5-.9-2.4,0-2.1,1.4-3.4,4.1-3.4h3.6v-1.1c0-1.7-.9-2.6-3-2.6-1.5,0-2.3.4-3,1.3l-1.2-1.1c1.1-1.4,2.3-1.8,4.2-1.8,3.2,0,4.7,1.4,4.7,3.9v8h-1.8v.1Zm0-5.4h-3.3c-1.8,0-2.6.7-2.6,2.1s.8,2,2.7,2c1,0,1.9-.1,2.6-.8.4-.4.6-1.1.6-2v-1.3Z" stroke-width="0"/>
                    <path d="m36.7,149.5c-2,0-3-1.4-3-3.2v-7.2h-1.5v-1.3h1.5v-3.7h1.7v3.7h2.5v1.3h-2.5v7.2c0,1.1.5,1.7,1.6,1.7h.9v1.5h-1.2Z" stroke-width="0"/>
                    <path d="m42.2,134.5c-.6,0-1.2-.5-1.2-1.2,0-.6.5-1.2,1.2-1.2.6,0,1.2.5,1.2,1.2,0,.6-.5,1.2-1.2,1.2Zm-.9,15v-11.8h1.7v11.8h-1.7Z" stroke-width="0"/>
                    <path d="m55,148.29c-.8.8-1.9,1.3-3.4,1.3-1.4,0-2.6-.5-3.4-1.3-1.2-1.2-1.4-2.9-1.4-4.7s.2-3.5,1.4-4.7c.8-.8,1.9-1.3,3.4-1.3,1.4,0,2.6.5,3.4,1.3,1.2,1.2,1.4,2.9,1.4,4.7,0,1.9-.2,3.5-1.4,4.7Zm-1.2-8.3c-.6-.6-1.3-.9-2.2-.9-.8,0-1.6.3-2.1.9-.9.9-1,2.3-1,3.6s.1,2.8,1,3.6c.6.6,1.3.9,2.1.9s1.6-.3,2.2-.9c.9-.9.9-2.3.9-3.6s-.1-2.8-.9-3.6Z" stroke-width="0"/>
                    <path d="m67.7,149.5v-7.3c0-2.1-1.1-3.1-2.9-3.1s-2.9,1.1-2.9,3.1v7.3h-1.7v-11.8h1.7v1.3c.8-1,2-1.4,3.3-1.4s2.3.4,3,1.1c.8.8,1.2,1.9,1.2,3.3v7.6h-1.7v-.1Z" stroke-width="0"/>
                    <path d="m80.3,149.5v-1.1c-1,1-1.8,1.3-3.4,1.3s-2.6-.3-3.3-1.1c-.6-.6-.9-1.5-.9-2.4,0-2.1,1.4-3.4,4.1-3.4h3.6v-1.1c0-1.7-.9-2.6-3-2.6-1.5,0-2.3.4-3,1.3l-1.2-1.1c1.1-1.4,2.3-1.8,4.2-1.8,3.2,0,4.7,1.4,4.7,3.9v8h-1.8v.1Zm0-5.4h-3.3c-1.8,0-2.6.7-2.6,2.1s.8,2,2.7,2c1,0,1.9-.1,2.6-.8.4-.4.6-1.1.6-2,0,0,0-1.3,0-1.3Z" stroke-width="0"/>
                    <path d="m89.2,149.5c-2.1,0-3-1.3-3-3.1v-13.9h1.7v13.9c0,1.2.4,1.7,1.6,1.7h.9v1.5h-1.2v-.1Z" stroke-width="0"/>
                    <path d="m109.5,149.5l-3.9-7.6h-4.1v7.6h-1.8v-17.1h6.6c3,0,5.1,1.8,5.1,4.8,0,2.5-1.5,4.1-3.7,4.6l4.1,7.8h-2.3v-.1Zm-3.5-15.4h-4.6v6.3h4.6c2,0,3.4-1,3.4-3.1.1-2.2-1.4-3.2-3.4-3.2Z" stroke-width="0"/>
                    <path d="m116.2,144.09c0,2.6,1.2,4.1,3.5,4.1,1.4,0,2.2-.4,3.1-1.3l1.2,1c-1.2,1.2-2.3,1.8-4.3,1.8-3.1,0-5.2-1.9-5.2-6,0-3.8,1.8-6,4.8-6s4.8,2.2,4.8,5.7v.8h-7.9v-.1Zm5.9-3.3c-.5-1.1-1.5-1.8-2.8-1.8-1.2,0-2.3.7-2.8,1.8-.3.6-.3,1-.4,2h6.2c.1-1,0-1.3-.2-2Z" stroke-width="0"/>
                    <path d="m131.5,149.7c-2,0-3.6-.5-4.8-1.7l1.2-1.2c.9,1,2.2,1.4,3.7,1.4,1.9,0,3.1-.7,3.1-2.1,0-1-.6-1.6-2-1.7l-1.9-.2c-2.3-.2-3.5-1.2-3.5-3.2,0-2.2,1.8-3.5,4.3-3.5,1.7,0,3.2.4,4.2,1.3l-1.1,1.1c-.8-.6-1.9-.9-3.1-.9-1.7,0-2.6.7-2.6,1.9,0,1,.6,1.6,2.1,1.7l1.9.2c2.1.2,3.5,1,3.5,3.2-.2,2.4-2.1,3.7-5,3.7Z" stroke-width="0"/>
                    <path d="m140.8,144.09c0,2.6,1.2,4.1,3.5,4.1,1.4,0,2.2-.4,3.1-1.3l1.2,1c-1.2,1.2-2.3,1.8-4.3,1.8-3.1,0-5.2-1.9-5.2-6,0-3.8,1.8-6,4.8-6s4.8,2.2,4.8,5.7v.8h-7.9v-.1Zm5.9-3.3c-.5-1.1-1.5-1.8-2.8-1.8-1.2,0-2.3.7-2.8,1.8-.3.6-.3,1-.4,2h6.2c.1-1,0-1.3-.2-2Z" stroke-width="0"/>
                    <path d="m159.1,149.5v-1.1c-1,1-1.8,1.3-3.4,1.3s-2.6-.3-3.3-1.1c-.6-.6-.9-1.5-.9-2.4,0-2.1,1.4-3.4,4.1-3.4h3.6v-1.1c0-1.7-.9-2.6-3-2.6-1.5,0-2.3.4-3,1.3l-1.2-1.1c1.1-1.4,2.3-1.8,4.2-1.8,3.2,0,4.7,1.4,4.7,3.9v8h-1.8v.1Zm0-5.4h-3.3c-1.8,0-2.6.7-2.6,2.1s.8,2,2.7,2c1,0,1.9-.1,2.6-.8.4-.4.6-1.1.6-2v-1.3Z" stroke-width="0"/>
                    <path d="m171.7,140c-.6-.6-1.1-.9-2-.9-1.7,0-2.8,1.4-2.8,3.2v7.2h-1.7v-11.8h1.7v1.4c.6-1,1.9-1.6,3.3-1.6,1.1,0,2,.3,2.8,1.1l-1.3,1.4Z" stroke-width="0"/>
                    <path d="m179,149.7c-3,0-5.2-2-5.2-6s2.3-6,5.2-6c1.6,0,2.7.4,3.9,1.8l-1.2,1.1c-.9-1-1.6-1.3-2.7-1.3-1.2,0-2.1.5-2.7,1.3-.6.8-.8,1.7-.8,3.2s.2,2.4.8,3.2c.6.9,1.6,1.3,2.7,1.3s1.8-.4,2.7-1.3l1.2,1.1c-1.2,1.1-2.3,1.6-3.9,1.6Z" stroke-width="0"/>
                    <path d="m193.7,149.5v-7.3c0-2.1-1.1-3.1-2.9-3.1s-3,1.1-3,3.1v7.3h-1.7v-17.1h1.7v6.6c.9-1,2-1.4,3.3-1.4,2.7,0,4.2,1.7,4.2,4.4v7.6h-1.6v-.1Z" stroke-width="0"/>
                    <path d="m3.5,173.5v-17.1h1.8v17.1h-1.8Z" stroke-width="0"/>
                    <path d="m17.5,173.5v-7.3c0-2.1-1.1-3.1-2.9-3.1s-2.9,1.1-2.9,3.1v7.3h-1.7v-11.8h1.7v1.3c.8-1,2-1.4,3.3-1.4s2.3.4,3,1.1c.8.8,1.2,1.9,1.2,3.3v7.6h-1.7v-.1Z" stroke-width="0"/>
                    <path d="m25.6,163.09v10.4h-1.7v-10.4h-1.5v-1.3h1.5v-2.2c0-1.8,1-3.2,3-3.2h1.2v1.5h-.9c-1.1,0-1.6.6-1.6,1.7v2.2h2.5v1.3h-2.5Z" stroke-width="0"/>
                    <path d="m37.6,164c-.6-.6-1.1-.9-2-.9-1.7,0-2.8,1.4-2.8,3.2v7.2h-1.7v-11.8h1.6v1.4c.6-1,1.9-1.6,3.3-1.6,1.1,0,2,.3,2.8,1.1l-1.2,1.4Z" stroke-width="0"/>
                    <path d="m47.5,173.5v-1.1c-1,1-1.8,1.3-3.4,1.3s-2.6-.3-3.3-1.1c-.6-.6-.9-1.5-.9-2.4,0-2.1,1.4-3.4,4.1-3.4h3.6v-1.1c0-1.7-.9-2.6-3-2.6-1.5,0-2.3.4-3,1.3l-1.2-1.1c1.1-1.4,2.3-1.8,4.2-1.8,3.2,0,4.7,1.4,4.7,3.9v8h-1.8v.1Zm0-5.4h-3.3c-1.8,0-2.6.7-2.6,2.1s.8,2,2.7,2c1,0,1.9-.1,2.6-.8.4-.4.6-1.1.6-2v-1.3Z" stroke-width="0"/>
                    <path d="m57.2,173.7c-2,0-3.6-.5-4.8-1.7l1.2-1.2c.9,1,2.2,1.4,3.7,1.4,1.9,0,3.1-.7,3.1-2.1,0-1-.6-1.6-2-1.7l-1.9-.2c-2.3-.2-3.5-1.2-3.5-3.2,0-2.2,1.8-3.5,4.3-3.5,1.7,0,3.2.4,4.2,1.3l-1.1,1.1c-.8-.6-1.9-.9-3.1-.9-1.7,0-2.6.7-2.6,1.9,0,1,.6,1.6,2.1,1.7l1.9.2c2.1.2,3.5,1,3.5,3.2-.2,2.4-2.2,3.7-5,3.7Z" stroke-width="0"/>
                    <path d="m68.4,173.5c-2,0-3-1.4-3-3.2v-7.2h-1.5v-1.3h1.5v-3.7h1.7v3.7h2.6v1.3h-2.5v7.2c0,1.1.5,1.7,1.6,1.7h.9v1.5h-1.3Z" stroke-width="0"/>
                    <path d="m79.7,164c-.6-.6-1.1-.9-2-.9-1.7,0-2.8,1.4-2.8,3.2v7.2h-1.7v-11.8h1.7v1.4c.6-1,1.9-1.6,3.3-1.6,1.1,0,2,.3,2.8,1.1l-1.3,1.4Z" stroke-width="0"/>
                    <path d="m90.7,173.5v-1.3c-.8,1-2,1.5-3.3,1.5s-2.3-.4-3-1.1c-.8-.8-1.2-1.9-1.2-3.3v-7.5h1.7v7.3c0,2.1,1.1,3.1,2.9,3.1s3-1.1,3-3.1v-7.3h1.7v11.8h-1.8v-.1Z" stroke-width="0"/>
                    <path d="m101.3,173.7c-3,0-5.2-2-5.2-6s2.3-6,5.2-6c1.6,0,2.7.4,3.9,1.8l-1.2,1.1c-.9-1-1.6-1.3-2.7-1.3-1.2,0-2.1.5-2.7,1.3s-.8,1.7-.8,3.2.2,2.4.8,3.2c.6.9,1.6,1.3,2.7,1.3s1.8-.4,2.7-1.3l1.2,1.1c-1.3,1.1-2.3,1.6-3.9,1.6Z" stroke-width="0"/>
                    <path d="m111.8,173.5c-2,0-3-1.4-3-3.2v-7.2h-1.5v-1.3h1.5v-3.7h1.7v3.7h2.5v1.3h-2.5v7.2c0,1.1.5,1.7,1.6,1.7h.9v1.5h-1.2Z" stroke-width="0"/>
                    <path d="m123.9,173.5v-1.3c-.8,1-2,1.5-3.3,1.5s-2.3-.4-3-1.1c-.8-.8-1.2-1.9-1.2-3.3v-7.5h1.7v7.3c0,2.1,1.1,3.1,2.9,3.1s3-1.1,3-3.1v-7.3h1.7v11.8h-1.8v-.1Z" stroke-width="0"/>
                    <path d="m136.5,164c-.6-.6-1.1-.9-2-.9-1.7,0-2.8,1.4-2.8,3.2v7.2h-1.7v-11.8h1.7v1.4c.6-1,1.9-1.6,3.3-1.6,1.1,0,2,.3,2.8,1.1l-1.3,1.4Z" stroke-width="0"/>
                    <path d="m140.3,168.09c0,2.6,1.2,4.1,3.5,4.1,1.4,0,2.2-.4,3.1-1.3l1.2,1c-1.2,1.2-2.3,1.8-4.3,1.8-3.1,0-5.2-1.9-5.2-6,0-3.8,1.8-6,4.8-6s4.8,2.2,4.8,5.7v.8h-7.9v-.1Zm5.9-3.3c-.5-1.1-1.5-1.8-2.8-1.8-1.2,0-2.3.7-2.8,1.8-.3.6-.3,1-.4,2h6.2c.1-1,.1-1.3-.2-2Z" stroke-width="0"/>
                    <path d="m160.1,163.09v10.4h-1.7v-10.4h-1.5v-1.3h1.5v-2.2c0-1.8,1-3.2,3-3.2h1.2v1.5h-.9c-1.1,0-1.6.6-1.6,1.7v2.2h2.5v1.3h-2.5Z" stroke-width="0"/>
                    <path d="m172.7,172.29c-.8.8-1.9,1.3-3.4,1.3-1.4,0-2.6-.5-3.4-1.3-1.2-1.2-1.4-2.9-1.4-4.7s.2-3.5,1.4-4.7c.8-.8,1.9-1.3,3.4-1.3,1.4,0,2.6.5,3.4,1.3,1.2,1.2,1.4,2.9,1.4,4.7,0,1.9-.2,3.5-1.4,4.7Zm-1.2-8.3c-.6-.6-1.3-.9-2.2-.9-.8,0-1.6.3-2.1.9-.9.9-1,2.3-1,3.6s.1,2.8,1,3.6c.6.6,1.3.9,2.1.9s1.6-.3,2.2-.9c.9-.9.9-2.3.9-3.6s-.1-2.8-.9-3.6Z" stroke-width="0"/>
                    <path d="m184.4,164c-.6-.6-1.1-.9-2-.9-1.7,0-2.8,1.4-2.8,3.2v7.2h-1.7v-11.8h1.7v1.4c.6-1,1.9-1.6,3.3-1.6,1.1,0,2,.3,2.8,1.1l-1.3,1.4Z" stroke-width="0"/>
                    <path d="m204.2,173.5l-1.4-3.9h-7.5l-1.4,3.9h-1.9l6.3-17.1h1.5l6.3,17.1h-1.9Zm-5.1-14.4l-3.2,9h6.4l-3.2-9Z" stroke-width="0"/>
                    <path d="m216,173.5v-1.3c-.8,1-2,1.5-3.3,1.5s-2.3-.4-3-1.1c-.8-.8-1.2-1.9-1.2-3.3v-7.5h1.7v7.3c0,2.1,1.1,3.1,2.9,3.1s3-1.1,3-3.1v-7.3h1.7v11.8h-1.8v-.1Z" stroke-width="0"/>
                    <path d="m225.8,173.7c-2,0-3.6-.5-4.8-1.7l1.2-1.2c.9,1,2.2,1.4,3.7,1.4,1.9,0,3.1-.7,3.1-2.1,0-1-.6-1.6-2-1.7l-1.9-.2c-2.3-.2-3.5-1.2-3.5-3.2,0-2.2,1.8-3.5,4.3-3.5,1.7,0,3.2.4,4.2,1.3l-1.1,1.1c-.8-.6-1.9-.9-3.1-.9-1.7,0-2.6.7-2.6,1.9,0,1,.6,1.6,2.1,1.7l1.9.2c2.1.2,3.5,1,3.5,3.2-.2,2.4-2.2,3.7-5,3.7Z" stroke-width="0"/>
                    <path d="m237,173.5c-2,0-3-1.4-3-3.2v-7.2h-1.5v-1.3h1.5v-3.7h1.7v3.7h2.5v1.3h-2.5v7.2c0,1.1.5,1.7,1.6,1.7h.9v1.5h-1.2Z" stroke-width="0"/>
                    <path d="m248.3,164c-.6-.6-1.1-.9-2-.9-1.7,0-2.8,1.4-2.8,3.2v7.2h-1.8v-11.8h1.7v1.4c.6-1,1.9-1.6,3.3-1.6,1.1,0,2,.3,2.8,1.1l-1.2,1.4Z" stroke-width="0"/>
                    <path d="m258.2,173.5v-1.1c-1,1-1.8,1.3-3.4,1.3s-2.6-.3-3.3-1.1c-.6-.6-.9-1.5-.9-2.4,0-2.1,1.4-3.4,4.1-3.4h3.6v-1.1c0-1.7-.9-2.6-3-2.6-1.5,0-2.3.4-3,1.3l-1.2-1.1c1.1-1.4,2.3-1.8,4.2-1.8,3.2,0,4.7,1.4,4.7,3.9v8h-1.8v.1Zm0-5.4h-3.3c-1.8,0-2.6.7-2.6,2.1s.8,2,2.7,2c1,0,1.9-.1,2.6-.8.4-.4.6-1.1.6-2v-1.3h0Z" stroke-width="0"/>
                    <path d="m267.1,173.5c-2.1,0-3-1.3-3-3.1v-13.9h1.7v13.9c0,1.2.4,1.7,1.6,1.7h.9v1.5h-1.2v-.1Z" stroke-width="0"/>
                    <path d="m272.2,158.5c-.6,0-1.2-.5-1.2-1.2,0-.6.5-1.2,1.2-1.2.6,0,1.2.5,1.2,1.2,0,.6-.6,1.2-1.2,1.2Zm-.9,15v-11.8h1.7v11.8h-1.7Z" stroke-width="0"/>
                    <path d="m284.1,173.5v-1.1c-1,1-1.8,1.3-3.4,1.3s-2.6-.3-3.3-1.1c-.6-.6-.9-1.5-.9-2.4,0-2.1,1.4-3.4,4.1-3.4h3.6v-1.1c0-1.7-.9-2.6-3-2.6-1.5,0-2.3.4-3,1.3l-1.2-1.1c1.1-1.4,2.3-1.8,4.2-1.8,3.2,0,4.7,1.4,4.7,3.9v8h-1.8v.1Zm0-5.4h-3.3c-1.8,0-2.6.7-2.6,2.1s.8,2,2.7,2c1,0,1.9-.1,2.6-.8.4-.4.6-1.1.6-2v-1.3h0Z" stroke-width="0"/>
                </g>
            </g>
            <g>
                <polygon points="286.3 109.59 253.5 123.89 253.5 83.7 286.3 69.39 286.3 109.59" fill="#094268" stroke="#fff" stroke-linejoin="round" stroke-width=".99"/>
                <polygon points="220.7 109.59 253.5 123.89 253.5 83.7 220.7 69.39 220.7 109.59" fill="#faa61a" stroke="#fff" stroke-linejoin="round" stroke-width=".99"/>
                <polygon points="286.3 69.39 253.5 83.7 220.7 69.39 253.5 54.99 286.3 69.39" fill="#fff" stroke="#fff" stroke-linejoin="round" stroke-width=".99"/>
                <polygon points="253.5 54.99 220.7 69.39 220.7 29.19 253.5 14.79 253.5 54.99" fill="#094268" stroke="#fff" stroke-linejoin="round" stroke-width=".99"/>
                <polygon points="188 54.99 220.7 69.39 220.7 29.19 188 14.79 188 54.99" fill="#faa61a" stroke="#fff" stroke-linejoin="round" stroke-width=".99"/>
                <polygon points="253.5 14.79 220.7 29.19 188 14.79 220.7 .5 253.5 14.79" fill="#faa61a" stroke="#fff" stroke-linejoin="round" stroke-width=".99"/>
            </g>
        </g>
  </svg>

</svg>